<svg xmlns="http://www.w3.org/2000/svg" width="240" height="160" viewBox="0 0 240 160">
    <g fill="none" fill-rule="evenodd">
        <g fill="#231815" fill-rule="nonzero">
            <g>
                <path d="M80.369 69.535l.001.038h1.842c-.308.656-.687 1.277-1.13 1.85h3.956v.804h-1.353v1.449h1.329v.804h-1.33v1.665h1.354v.805h-1.353v1.874h1.497v.805h-3.867v.852h-1.25V72.18c-.24.21-.231.378-.488.571l-.088-.104c.41-.857.689-1.77.83-2.71l.05-.401zm-8.726-.163l1.025 1.15c-.529.105-1.064.174-1.602.21v1.97h1.682v.805h-1.602c.103 1.316.569 2.578 1.346 3.644.15.217.344.4.568.539l.28.145v.144c-.367.108-.663.382-.8.74-.054.12-.084.248-.088.379-.008.158-.008.316 0 .474h-.137c-.591-.802-1.036-1.704-1.313-2.663v3.524h-1.52V76c-.113.33-.225.644-.345.966-.305.665-.667 1.303-1.081 1.906v1.287h-1.209v-.37h-3.203v.37h-1.193v-8.495h1.217v.282h.385V70.65H62.13v-.805h5.709l.016.805h-1.497v1.295h.416l.384-.45 1.345.386-.424.41v5.518c.315-1.281.477-2.597.48-3.917h.945v-.459h-1.28v-.804h1.28v-1.85h-1.53v-.137c1.277-.247 2.512-.675 3.668-1.271zm7.118 1.31l1.24.58c-.485.583-1.02 1.121-1.6 1.61h1.032c-.757 1.095-1.826 1.936-3.066 2.412.767-.002 1.534-.045 2.298-.128l-.313-.861.097-.072c.72.209 1.513.635 1.6 1.36-.005.156-.074.305-.19.41-.116.106-.27.161-.426.152-.4 0-.536-.193-.632-.555-.513.161-1.025.298-1.553.41h1.144c-.043.23-.102.455-.176.676h1.754v.7h-1.986c-.072.153-.144.33-.232.483.49.026.969.169 1.393.418.256.145.352.804.352 1.006-.004.324-.262.586-.584.595v.04c-.609 0-.68-.33-.8-.804-.114-.301-.288-.575-.513-.805-.745 1.255-1.658 1.657-3.139 2.116l-.104-.089c1.03-.665 1.809-1.66 2.21-2.823h-1.745v-.78h1.809l.08-.604c-.36.08-1.2.137-1.553.177l-.2-.997c.174.003.349-.013.52-.049.572-.294 1.079-.701 1.49-1.198-.635.181-1.28.326-1.93.434l-.24-.957c.228-.018.455-.047.68-.089.21-.059.5-.592.66-.907l.085-.17h1.553c-.515.472-1.092.872-1.713 1.19h1.257c.12-.22.208-.456.264-.7h.376c.364-.687.633-1.42.8-2.18zM58.736 76.21l1.754.354-.617.482v2.317h.873v.756H49.833v-.756h1.16v-2.888h1.53v.21h5.757l.456-.475zm-.408 1.31h-.977v1.923h.977v-1.922zm-2.442-.04h-1.017v1.923h1.017v-1.922zm-2.482 0h-.88v1.923h.88v-1.922zm13.451.636h-3.203v.917l3.203.04v-.957zm34.92-6.576l.126.001c.218.011.435.07.65.194l.13.082v.869l-.1.06c-.185-.1-.388-.157-.595-.169-.193-.005-.384.05-.542.156-.17.127-.304.298-.386.494-.117.28-.194.574-.228.876-.058.42-.085.845-.08 1.27 0 1.742.437 2.594 1.29 2.594.142-.007.28-.036.412-.087l.13-.058.098.06-.035.954c-.256.139-.544.208-.833.201-1.499 0-2.244-1.223-2.238-3.628-.06-.995.123-1.99.536-2.9.323-.617.97-.995 1.664-.97zm-10.6 0l.132.003c.257.013.514.079.77.216l.155.09v.95l-.112.052c-.214-.183-.48-.29-.759-.306-.218-.006-.427.086-.572.251-.155.174-.235.402-.223.64-.007.214.05.425.166.605.055.085.115.168.18.246l.102.116.166.187c.113.122.23.24.35.355.322.31.596.664.816 1.06.12.267.192.555.21.845l.004.218v.172c-.019.456-.187.896-.481 1.251-.318.359-.777.559-1.25.546-.344.01-.682-.084-.99-.304l-.13-.102v-.957l.112-.053c.255.21.57.333.896.354.213.008.42-.078.56-.23.144-.192.216-.43.202-.676.003-.232-.052-.461-.158-.663-.072-.118-.153-.23-.242-.338l-.189-.215-.2-.206-.165-.17c-.161-.166-.308-.327-.437-.476-.14-.151-.263-.317-.371-.499-.136-.277-.214-.578-.23-.882l-.001-.182-.002-.167c.013-.444.173-.873.46-1.218.242-.271.57-.446.923-.498l.153-.015h.154zm30.765.006c.551-.024 1.066.277 1.321.778.358.967.505 2 .429 3.021.051.952-.077 1.905-.381 2.812-.208.537-.736.88-1.301.848-.574.03-1.103-.31-1.317-.851-.306-.923-.432-1.895-.372-2.857-.06-.97.065-1.944.373-2.87.193-.474.623-.804 1.122-.87l.126-.011zm-7.9.033l.236.002c.486.027.928.32 1.147.776.346.958.49 1.98.42 2.988.052.952-.077 1.905-.38 2.812-.208.537-.736.88-1.302.848-.574.03-1.103-.31-1.317-.851-.305-.923-.431-1.895-.371-2.857-.061-.97.065-1.944.372-2.869.194-.502.667-.833 1.195-.85zm-17.76.057l.064.047.96 2.863c.113.333.22.67.321 1.014l.148.519.003.01-.043-.436-.032-.428-.019-.422-.006-.42v-2.678l.068-.069h.961l.068.069v7.175l-.068.069-.961-.047-1.163-3.49-.092-.301-.131-.473-.087-.336.012.15.051.98-.003.09.003.124-.003.12.048 3.13-.068.069h-.953l-.068-.069.024-7.192.068-.068h.897zm-1.994 0l.068.069v7.175l-.068.069h-.97l-.067-.069v-7.175l.068-.069h.969zm23.676-.094l.158.006c1.092 0 1.662.622 1.662 1.83-.134 1.104-.487 2.168-1.035 3.127l-.19.316-.56 1.038-.003.078-.02.046h1.66l.068.069v.804l-.068.069h-3.138l-.062-.098.329-.7.901-1.89.451-.974.1-.23.098-.244.113-.294c.148-.378.23-.778.244-1.181 0-.56-.183-.825-.549-.825-.327 0-.497.277-.521.883l-.003.159-.012.52-.072.055h-.945l-.068-.068v-.276c-.05-.589.076-1.18.369-1.708.241-.282.577-.458.937-.502l.156-.01zm-7.822 0l.157.006c1.093 0 1.663.622 1.663 1.83-.123 1.1-.464 2.164-1 3.126l-.185.317-.56 1.035v.023l-.004.058-.02.046h1.661l.068.069v.804l-.068.069h-3.139l-.061-.098.328-.7.433-.892.125-.265.122-.266.218-.475.395-.832.004-.013.029-.062.027-.06.1-.23.098-.243.113-.294c.148-.378.23-.778.243-1.181 0-.56-.183-.825-.548-.825-.327 0-.497.277-.522.883l-.003.159-.041.545-.083.03h-.945l-.068-.068v-.276c-.05-.589.076-1.18.37-1.708.24-.282.577-.458.937-.502l.156-.01zm-4.165.094l.068.069v.804l-.068.068h-1.534v2.156h1.35l.068.069v.804l-.068.069h-1.35v2.276h1.534l.068.069v.804l-.068.068h-2.554l-.068-.068v-7.12l.068-.068h2.554zM82.468 76.83h-1.145v1.995h1.145V76.83zm39.528-4.284c-.2 0-.348.183-.437.563-.12.723-.168 1.457-.143 2.195-.025.736.023 1.472.142 2.194.09.382.236.559.438.559.203 0 .349-.177.43-.547.12-.712.168-1.435.143-2.162.022-.75-.024-1.5-.135-2.235-.09-.384-.237-.567-.438-.567zm-7.846 0c-.2 0-.348.183-.437.563-.12.723-.168 1.457-.144 2.195-.024.736.024 1.472.143 2.194.09.382.236.559.438.559s.348-.177.43-.547c.12-.712.168-1.435.142-2.162.022-.75-.023-1.5-.134-2.235-.09-.384-.238-.567-.438-.567zm-48.696.173h-.425c.069 1.022-.136 2.044-.592 2.96-.238.338-.506.653-.8.942l.007.724h3.203v-.86h-.462c-.514-.008-.931-.088-.931-.805v-2.96zm-8.351-3.282c-.072.147-.158.288-.256.418h3.73v.636H56.39c-.35.397-.732.763-1.145 1.094h.505v.322h.8v-1.304h1.145v.282h2.675v.636H57.75v.418h1.754l.344-.394 1.273.281-.4.443v4.062h-1.177v-.16h-3.763v.192h-1.073v-4.255l-.392.257v1.899h-.961v1.158h.96v.7h-2.593l-.417.338-1.049-.571.433-.298V69.5h1.145v.266h2.93v.7h-1.457v.965l.264-.29 1.097.282c.32-.633.57-1.3.745-1.987h1.689zm25.365 4.947h-1.145v1.666l1.145-.024v-1.642zm-18.415-1.625h-.425v3.283c.25-.654.394-1.344.425-2.044v-1.239zm2.794-.04h-.488v2.888c0 .222.132.234.303.234h.169l.016-3.122zm-8.543-.145l-1.345.08c.208.097.648.266.648.548-.018.153-.143.271-.296.281-.208 0-.376-.209-.448-.394-.021-.07-.05-.138-.088-.2l-.128-.234h-.865v1.15c.24 0 .96.105.96.491 0 .193-.2.25-.352.25-.296 0-.456-.266-.608-.475v1.544h1.657c-.28-.064-.272-.16-.344-.418l-.112-.394c-.359.201-.728.384-1.105.547l-.088-.08c.536-.395.977-.805 1.49-1.223-.47-.345-.962-.657-1.474-.934l.072-.088c.56.217 1.12.466 1.665.708.303-.351.559-.74.76-1.159zm.192 1.159l-.368.265c.248.121 1.265.588 1.265.917 0 .33-.152.483-.384.443-.24-.088-.456-.234-.625-.427-.199-.231-.419-.444-.657-.635-.16.105-.32.233-.472.338.264.137.56.25.56.587 0 .153-.088.21-.184.322h1.914v-1.408c-.098.135-.25.22-.416.233-.353 0-.425-.434-.633-.635zm-6.213.53h-.448v1.16h.448v-1.16zm7.262-1.568h-1.097l.76.233c-.182.185-.354.381-.512.588.314.08.594.257.8.506l.049-1.327zm22.923-.53h-1.145v1.447h1.145v-1.448zm-29.232-.009h-1.401v1.408h1.4v-1.408zm25.933-2.984l.889 1.126c-.978.218-1.967.379-2.963.482.369.194 1.05.5 1.05.974 0 .346-.393.53-.681.53-.289 0-.52-.289-.6-.7-.032-.277-.105-.548-.217-.804-.352 0-.8.04-1.16.04.32.218.896.596.896 1.038-.029.304-.281.537-.585.54-.296 0-.6 0-.6-.379v-1.094l-.168-.096h-.737v-.137c1.682-.3 3.32-.811 4.876-1.52zm-13.715 1.48h-.425v1.295h.425V70.65zm-13.171-.185h-.448v.99h.448v-.99zm30.289-1.086c.528.193 1.49.402 1.49 1.11-.042.412-.389.726-.802.724-.472 0-.648-.137-.72-.499.008-.187.032-.372.072-.555.007-.242-.06-.481-.192-.684l.152-.096zM20.905 14.13c6.213.176 11.041 3.973 11.714 8.744.198.95.143 1.935-.16 2.856-.045 1.421-.06 2.66-.064 3.795v.949c.003 2.472.042 4.517-.096 7.065.184 1.907-.24 4.111-.257 6.042-.04 3.314-.592 5.63-.496 8.977.104 3.524-.28 6.895-3.867 8.455-3.886 1.776-8.425 1.29-11.85-1.27-1.311-.839-2.008-2.374-1.777-3.918 4.427 1.93 4.427 1.93 6.469 1.544.704-7.288.088-14.376.905-21.648.152-7.481.416-14.48-.52-21.592zM125 25.962c8.887.306 17.79.58 26.662 1.15 1.945.13 4.387.5 5.508 3.58-1.18.46-2.395.818-3.635 1.07-4.9.547-7.206 3.685-6.197 8.745 2.402 0 4.804-.121 7.134.088 2.396.24 4.771.648 7.11 1.223 1.521.354 1.81 1.464.913 3.065l-14.188-.08c-.416 3.274-.72 6.33-1.209 9.355-.729 4.449-3.13 7.49-6.613 7.49-2.4-.123-4.74-.797-6.838-1.971-4.492-2.357-6.405-6.307-5.981-12.236 1.145 2.655 1.761 4.65 2.818 6.38l.094.15.192.303c.912 1.42 2.069 2.854 4.166 2.338 2.063-.45 3.573-2.227 3.691-4.344.296-2.414.352-4.827.536-7.675l-5.548-.515c-2.402-.209-4.804-.547-7.206-.579-1.666.085-3.324.28-4.964.587l-.505 1.167 2.539 1.15c-.52.475-.689.757-.857.757-1.842-.065-3.203-.805-3.203-2.88 0-1.931 1.505-2.655 2.955-2.744 4.003-.249 8.006-.209 12.066-.265h4.003c.913-3.652 1.673-6.741 2.53-10.2-5.012-.355-10.088-.733-15.173-1.046-2.386-.121-4.804-.218-6.5-3.725 2.321-.153 4.002-.394 5.7-.338zm-27.423-1.118c3.94.566 7.376 2.987 9.248 6.516 1.009 1.818 1.913 2.88 3.851 3.17.549.128 1.085.305 1.601.53 3.243 1.183 3.38 1.473 2.562 5.447l-4.211.933c-.432 3.218-.504 6.435-1.377 9.444-.858 3.052-2.21 5.942-4.003 8.552-2.106 2.992-8.415 2.735-11.322-.065-2.274-2.18-2.938-5.108-3.09-8.326.85 1.534 1.822 2.998 2.906 4.376.753.805 2.17 1.762 3.035 1.561.864-.201 1.681-1.818 1.721-2.848.184-4.698.08-9.412.08-14.552-2.05-.395-4.122-.664-6.205-.805-2.682 0-3.875-1.512-5.068-3.934 3.563-1.36 6.861.057 10.272-.587v-9.412zM64.43 27.339c7.07 1.375 7.07 1.375 9.48 8.591l5.604-.257c2.026-.097 3.828.322 5.029 2.14-.388 2.082-1.796 2.273-3.193 2.376l-.31.022c-.258.018-.512.038-.757.071-1.665.226-3.475.282-5.605.443 2.026 4.827 7.75 4.762 10.217 8.849-3.227.29-3.227.29-10.08-3.958-.297 4.505-.489 8.447-.881 12.38-.08.805-.8 1.988-1.425 2.092-1.602.298-3.555.644-4.876 0-2.5-1.356-4.683-3.232-6.406-5.502h3.908v-8.85c-2.05 1.722-2.779 3.902-4.092 5.632-2.722 3.604-7.206 8.19-12.674 6.5 7.007-2.955 10.679-8.563 14.183-14.63l.467-.812.466-.816c-.61-.104-1.225-.159-1.834-.21l-.405-.035c-2.353-.204-4.549-.519-5.767-3.665l8.951-.748v-9.613zM5.501 37.9c.8.805 2.25 1.505 2.241 2.22 0 2.792 1.602 4.827 2.53 7.24.779 1.821.386 3.934-.992 5.35-1.041 1.062-4.716.885-6.221-.112-3.371-2.22-4.06-6.388-1.546-9.75 1.13-1.513 2.37-2.953 3.988-4.948zm85.35 4.151c1.457 1.61 3.563 2.936 3.45 4.023-.168 1.568-1.68 3.813-3.09 4.231-2.45.74-3.283-1.762-4.091-3.942l3.73-4.312zM39 37.137c4.555 1.134 7.525 2.67 9.55 5.631 1.602 2.357 1.074 4.714-1.224 5.993-.93.492-2.027.55-3.003.16-.976-.389-1.733-1.188-2.073-2.187-1.193-2.815-1.994-5.808-3.25-9.597zm9.727-29.08l.158.063 4.94 11.416-.062.158-1.53.668-.157-.062-2.403-5.521-2.021.885 2.394 5.52-.062.16-1.53.667-.157-.062-4.956-11.456.062-.159 1.53-.667.157.062 1.89 4.354 2.02-.885-1.872-4.314.062-.159 1.537-.667zm77.455-.78l1.433.611.073.12-.385 5.22c-.036.52-.08 1.038-.134 1.556l-.087.775-.059.446.1-.321.123-.385c.232-.718.457-1.318.699-1.852l.105-.225 1.793-4.28.158-.064 1.537.651.064.158-4.804 11.472-.158.064-1.433-.611-.073-.12.44-5.89c.043-.483.088-.927.138-1.357l.069-.549.03-.223.037-.241-.048.143-.498 1.417c0 .045-.002.069-.02.115l-.04.092-.065.138-.128.312-.028.063-2.01 5.036-.157.066-1.53-.643-.064-.158 4.764-11.471.158-.065zm-6.262-2.215l4.22 1.44.075.153-.457 1.343-.152.075-2.513-.863-1.188 3.506 2.21.765.074.153-.456 1.344-.153.075-2.208-.766-1.293 3.794 2.506.862.075.153-.448 1.343-.153.076-4.196-1.44-.074-.153 3.979-11.785.152-.075zm-63.5 1.045l.158.102c.579.484 1.046 1.088 1.366 1.766.563 1.056 1.037 2.157 1.415 3.285.615 1.495.892 3.11.808 4.736-.148 1.065-.919 1.936-1.937 2.202-1.033.445-2.232.204-3.013-.603-.482-.47-.97-1.235-1.465-2.295l-.213-.472c-.25-.572-.5-1.218-.754-1.939-.721-2.114-.991-3.692-.806-4.739.158-1.062.923-1.932 1.938-2.217.818-.345 1.747-.278 2.503.174zm56.207-3.115l1.601.434.085.148-1.381 5.2 3.418-4.7.129-.044 1.772.49-3.993 5.29.914 7.017-1.991-.538-.089-.106-.533-6.126-1.48 5.544-.148.085-1.601-.435-.085-.148 3.235-12.026.147-.085zm-46.515-.379l.143.077 4.123 11.794-.084.157-1.553.394-.144-.08-1.29-4.023-.173-.576c0-.043-.008-.083-.025-.136l-.067-.18-.007-.027-.472-1.609-.116-.383-.01.293.073 1.166v.427l.304 5.527-.092.124-1.041.25-.136-.065-2.081-4.311c-.27-.549-.491-1.023-.689-1.48l-.485-1.15 1.4 7.38-.09.14-1.53.378-.147-.098-1.993-12.324.09-.136 1.385-.346.136.063 2.29 4.66c.19.394.372.787.546 1.179l.36.827.418.977-.134-1.046-.129-1.379v-.91l-.272-5.076.09-.124 1.402-.354zm-11.341 4.93l-.105.018-.104.03c-.497.161-.802.66-.72 1.18.18 1.303.513 2.579.997 3.812.354 1.2.85 2.352 1.48 3.435.251.46.794.673 1.29.506.48-.155.781-.63.719-1.136-.11-1.129-.376-2.236-.797-3.3-.356-1.196-.823-2.355-1.398-3.466l-.252-.474c-.205-.427-.657-.664-1.11-.605zm54.296-5.49l.17.037.181.043c.36.097.7.261 1.002.485l.147.116.04.115-.317 1.69-.157-.131c-.277-.23-.6-.398-.944-.49-.328-.079-.672-.047-.979.088-.333.155-.615.402-.815.714-.29.436-.52.911-.682 1.41-.227.701-.407 1.416-.54 2.142-.572 2.967-.111 4.56 1.339 4.837.259.036.522.03.778-.018l.191-.043.186-.05-.333 1.702-.081.091c-.467.152-.966.179-1.445.076-2.546-.487-3.415-2.816-2.626-6.915.22-1.715.86-3.348 1.866-4.758.722-.915 1.885-1.35 3.02-1.14zM73.64 1.237l.139.099.232 1.4-.099.138-2.588.43.617 3.648 2.284-.39.138.099.24 1.4-.098.139-2.284.39.665 3.953 2.612-.446.139.1.232 1.448-.099.138-4.371.74-.139-.099-2.073-12.3.098-.14 4.355-.747zm28.14-.234l1.65.225.102.136-1.73 12.317-.134.102-1.601-.209-.104-.136 1.682-12.332.135-.103zM81.352.372l-1.447 7.406.553 5.317-.107.133-1.658.177-.132-.108-.54-5.285-3.383-6.945L76.57.865l.124.073 1.077 2.607c.044.088.083.177.125.311 0 .014.005.032.02.064l.095.18.204.48c.087.214.17.428.25.644l.115.324.101.308.009-.113.024-.262.04-.337.152-1.148.048-.446.4-2.872.107-.103 1.89-.202zM93.518.23l1.665.128.111.13-.36 4.706 2.163.174.36-4.705.128-.112 1.705.121.111.13-.936 12.412-.13.112-1.665-.13-.11-.129.455-6.026-2.163-.167-.495 5.995-.129.11-1.665-.128-.11-.13.936-12.38.13-.111zM89.818 0l.36.009c.373.023.741.117 1.082.277l.169.086.062.106v1.716l-.178-.098c-.318-.175-.67-.28-1.024-.307-.337-.002-.667.094-.944.274-.294.221-.524.518-.665.859-.204.485-.338.997-.4 1.519-.08.731-.109 1.468-.087 2.207 0 3.01.74 4.48 2.188 4.48.272-.01.539-.07.788-.175l.148-.069.174-.088v1.74l-.062.106c-.43.238-.914.36-1.403.353-2.593 0-3.883-2.117-3.891-6.291-.104-1.726.216-3.45.935-5.028C87.613.65 88.67.01 89.819 0z" transform="translate(39 39)"/>
            </g>
        </g>
    </g>
</svg>
