<svg xmlns="http://www.w3.org/2000/svg" width="240" height="160" viewBox="0 0 240 160">
    <g fill="none" fill-rule="evenodd">
        <g fill="#E8380D" fill-rule="nonzero">
            <g>
                <path d="M129 67.66l-1.017.797c-.316 2.856-.445 4.144-1.965 6.614.748.863 1.738 1.48 2.842 1.768v.246c-.79.254-1.308 1.01-1.263 1.838v.597l-.152.047c-1.08-.795-2.006-1.779-2.736-2.903-1.397 1.375-3.055 2.455-4.874 3.176l-.423.16-.163-.164c1.887-1.257 3.482-2.906 4.677-4.835-.245-.987-.432-1.988-.562-2.997-.105-1.03-.128-2.06-.163-3.079h-.737c0 1.335-.07 2.646-.222 3.98-.305 2.721-2.196 5.017-4.354 6.626l-.241.176-.234-.152c.222-.351.526-.75.783-1.159v-.023c1.59-2.342 1.965-5.631 1.965-8.441v-5.947h2.221v.679c1.5-.374 2.944-.95 4.291-1.71l2.152 1.909c-.912.14-1.836.28-2.736.34-1.17.07-2.467.093-3.707.128v2.529h3.11l.784-.902 2.724.703zm-88.335-4.74l3.613.093c-1.122 1.66-2.642 3.012-4.42 3.934h4.678v1.24h-4.677v2.342h4.08v1.311h-3.998v2.962h4.49v1.253h-4.49v3.84h-2.842v-3.84h-4.677v-1.253H37.1V71.84h-3.613v-1.334H37.1v-2.342h-3.952v-1.217h5.437c.806-1.019 1.449-2.156 1.906-3.372l.175-.656zm53.258.035c-.093.667-.21 1.358-.339 2.037H96.8l.69-.843 2.9.679-.656.69v12.445c0 .348-.088.69-.257.995-.244.35-.628.576-1.052.62-.617.119-1.241.19-1.868.214l-.47.009c-1.17 0-.211-.492-1.17-1.276-.644-.289-1.331-.467-2.034-.527V77.8c.959 0 1.906.094 2.864.094.281 0 .936 0 1.1-.27.048-.167.068-.34.058-.515v-10.84H93.28c-.237.519-.518 1.016-.841 1.486.999.036 1.987.217 2.934.539.643.304 1.088.714 1.088 1.335 0 .579-.622 1.005-1.075 1.06l-.095.005c-1.169 0-1.169-1.17-1.964-1.932-.31-.29-.652-.544-1.017-.76-1.056 1.032-2.27 1.886-3.598 2.529l-.4.186-.176-.14c1.145-1.037 1.958-2.389 2.338-3.887l.094-.421H87.69v13.299H84.91v-15.09l2.782.011v.527h3.087c0-.69.094-1.37.105-2.06h3.04zm-83.985.023c-.07.421-.163.855-.245 1.288h6.594v1.17H9.354c-.38.791-.927 1.49-1.602 2.05h4.829l.631-.797 2.643.597-.737.75v9.681c.023.356-.02.714-.129 1.054-.35.82-2.338 1.007-3.063 1.007-.19.012-.38-.011-.561-.07-.094-.06-.152-.247-.187-.34-.04-.183-.103-.36-.187-.527-.27-.48-1.018-.69-1.497-.82v-.28c.712.112 1.431.167 2.151.163.456 0 .83 0 .83-.561V68.69H3.403v10.876H.69V66.783h2.712v.749h3.04c.117-.666.195-1.338.234-2.014H0v-1.17l6.7-.082v-1.288h3.238zm55.094.047v.047h2.783c-.479 1.003-1.063 1.953-1.742 2.833h6.08v1.17h-2v2.19H72.2v1.17h-2.046v2.552h2.081v1.171h-2.08v3.103h2.338v1.17H66.47v1.311h-1.93V67.075c-.32.271-.348.508-.6.754l-.147.124-.129-.163c.286-.601.532-1.219.736-1.85l.041-.137.112-.12-.065-.031.057-.188c.23-.797.392-1.613.487-2.44zm-32.703 9.003c-.015.736-.077 1.472-.187 2.2-.109.529-.253 1.049-.433 1.557-.538 1.35-1.341 2.578-2.36 3.61l-.282.277-1.228-2.798c1.48-1.114 2.764-2.467 3.8-4.004l.503-.842h.187zm30.318-7.224l1.841.848-.047.151-.288.319c-.678.722-1.408 1.393-2.184 2.007h1.59c-1.151 1.688-2.78 2.993-4.677 3.746 1.172-.007 2.343-.077 3.508-.21l-.492-1.312.152-.105c1.1.316 2.339.972 2.41 2.072-.01.241-.115.469-.293.632-.149.136-.337.217-.535.233l-.12.002c-.62 0-.83-.305-.982-.843-.784.245-1.567.444-2.339.62h1.766c-.073.349-.167.693-.28 1.03h2.63v1.066h-2.946c-.106.245-.223.503-.351.749.75.037 1.48.253 2.128.632.397.223.55 1.264.55 1.534-.013.49-.41.883-.9.89v.046c-.936 0-1.053-.503-1.299-1.24-.139-.414-.355-.796-.637-1.127l-.146-.161c-1.12 1.85-2.434 2.498-4.549 3.156l-.28.086-.152-.128c1.582-1.024 2.776-2.55 3.39-4.332h-2.618V74.1h2.794l.105-.925c-.484.105-1.583.192-2.165.25l-.173.02-.316-1.523c.267.002.534-.026.795-.082.893-.447 1.689-1.067 2.339-1.826-.779.218-1.567.401-2.361.55l-.597.106-.375-1.464c.223 0 .819-.082 1.041-.129.398-.117.982-1.31 1.17-1.65h2.396c-.81.71-1.71 1.308-2.677 1.78h1.929c.19-.333.328-.692.41-1.066h.584c.557-1.055.977-2.176 1.25-3.337zm57.408 2.634l-.841.89v5.385h-2.292v-.374h-1.87v2.95c.636-.198 1.26-.432 1.87-.703-.099-.721-.354-1.413-.748-2.025l.21-.129c.994.597 2.748 1.347 2.748 2.658.042.524-.291.997-.784 1.143l-.117.028c-.553.014-1.042-.362-1.169-.902-.958.867-1.964 1.68-3.013 2.434l-.635.446-1.04-2.154c.28-.176.386-.281.386-.62V68.14c-.156.125-.328.244-.501.366l-.26.184-.222-.152c1.25-1.633 2.002-3.592 2.163-5.643h3.391l-.62 1.03c.741.129 1.46.357 2.14.68.819.444 1.006.69 1.064 1.334.055.6-.45.794-.956.845l-.108.01c-.538.035-.772-.34-.994-.761-.15-.27-.317-.527-.502-.773-.255-.317-.559-.59-.9-.808-.164.27-.375.527-.562.784.525.082.982.402 1.24.867.198.62 0 1.17-.492 1.276-.134.029-.248.049-.347.056l-.095.002c-.21-.005-.352-.088-.493-.304-.127-.27-.183-.568-.164-.866l-.128-.469c-.398.457-.807.902-1.17 1.312h.866v.55h1.777l.655-.69 2.513.467zM12.008 69.136c-.767 1.02-1.754 1.852-2.888 2.435h2.806v1.17H9.108v1.546h2.865v1.17H9.108v3.22H6.49v-3.22H3.952v-1.17h2.537v-1.545H4.151V71.57h4.034c.498-.737.848-1.564 1.028-2.435h2.795zm56.228 5.057H66.47v3.103l1.766.047v-3.15zm25.36-3.992c-.102 1.01-.362 1.998-.772 2.927.805.168 1.59.423 2.339.76.83.493 1.169.844 1.169 1.558-.031.632-.496 1.15-1.106 1.26l-.133.016c-1.251 0-1.368-1.17-1.813-2.025-.173-.331-.397-.632-.664-.892l-.166-.15c-.847 1.027-1.903 1.86-3.098 2.447l-1.17.526-.163-.164c.71-.462 1.289-1.1 1.684-1.85h-.036c.724-1.356 1.09-2.875 1.064-4.413h2.865zm31.978-1.3h-1.824c0 .738.152 1.44.28 2.178.178.744.417 1.473.714 2.178.431-1.402.71-2.847.83-4.308v-.047zm-57.338 1.546H66.47V73l1.766.047v-2.599zm48.674.48h-1.859v1.17h1.871l-.012-1.17zm-88.849-2.74c.772.165 1.614.188 2.339.41.55.128 1.049.422 1.426.843.301.277.5.65.561 1.054-.063.6-.526 1.073-1.112 1.158l-.127.013c-.97 0-1.286-.691-1.66-1.417-.167-.329-.363-.642-.585-.937-.304-.38-.649-.725-1.029-1.03l.187-.093zm-23.478.668c.69.152 1.368.456 2.082.585.5.073.877.49.9.995.03.272-.065.543-.258.737-.138.138-.316.226-.505.254l-.115.01c-.038 0-.077-.001-.116-.006-1.087 0-1.087-1.053-1.532-1.802-.165-.215-.354-.411-.56-.586l.104-.187zm112.327-.105h-1.859v1.03h1.871l-.012-1.03zm-48.674-1.686H66.47v2.2l1.766.047v-2.247zm-5.098-4.543l1.368 1.721c-1.49.3-2.998.508-4.513.62.56.305 1.613.773 1.613 1.5 0 .489-.514.766-.953.803l-.1.004c-.455 0-.794-.375-.876-.995-.044-.433-.159-.856-.34-1.253h-1.776c.49.34 1.368.914 1.368 1.593-.04.43-.376.766-.794.813l-.107.006-.177-.001c-.383-.01-.735-.075-.735-.573v-1.674l-.269-.14h-1.169v-.2c2.57-.424 5.076-1.172 7.46-2.224zm-34.48.492c.757.076 1.504.225 2.233.445.9.457 2.128 1.089 2.128 2.271 0 .692-.72 1.116-1.34 1.166l-.122.005c-.315 0-.818 0-1.005-.363-.202-.402-.366-.821-.491-1.253-.317-.825-.846-1.551-1.532-2.107l.129-.164zm4.922-.152c1.17.222 3.087.457 3.987 1.276.37.305.585.76.585 1.24 0 .69-.619 1.12-1.248 1.182l-.119.007c-.196.004-.39-.027-.563-.1-.76-.315-.654-.655-.9-1.17-.202-.424-.462-.818-.772-1.17-.338-.419-.731-.789-1.169-1.101l.199-.164zm34.82-.035c.806.292 2.338.62 2.338 1.697 0 .604-.456 1.1-1.042 1.164l-.127.007c-.725 0-.983-.21-1.1-.773 0-.245.117-.597.117-.843.008-.37-.098-.734-.304-1.041l.117-.211zM16.6 0l.119.012 7.18.538c.592.002 1.173.158 1.713.472.852.79.75 1.62-.284 2.44-.379.267-.609.693-.63 1.157l.002.175v7.054h14.908l.004-10.683c-.055-.218-.034-.446.056-.65l.062-.12.078-.112c.168-.187.408-.288.654-.281l.118.011 7.172.537c.417.004.828.085 1.223.244l.235.105.23.123c.852.79.75 1.62-.285 2.44-.382.266-.616.691-.64 1.156l.003 7.23h.513l.955-1.345.515-.707.453-.607.395-.51.232-.285.207-.244.183-.202.16-.16.137-.12c.063-.05.118-.086.164-.106l.044-.016.04-.006c.335.04.649.19.881.419l1.773 1.46 1.403 1.18.737.638.45.403.367.34.282.279.142.153.107.127c.074.095.111.164.113.207.016.274-.077.544-.254.744-.046.058-.106.103-.188.134l-.09.026h-9.722v33.484c-.064 1.202-.285 1.983-.703 2.34l-.1.074-.106.06c-1.149.364-2.351.533-3.54.498-1.202.1-2.411-.034-3.6-.41-.55-.36-.833-1.137-.869-2.33l-.003-.263v-1.025l-14.895.011-.001 1.69c-.064 1.201-.285 1.982-.702 2.338l-.1.075-.106.06c-1.148.371-2.352.54-3.541.498-1.2.093-2.408-.036-3.601-.4-.552-.372-.833-1.143-.868-2.34l-.003-.263V13.64h-7.98c-.461 0-.743-.236-.823-.66l-.018-.132-.006-.144c-.03-.237.053-.474.223-.641.142-.14.33-.218.514-.221l.11.007h7.957L15.76 1.16c-.046-.208-.028-.423.05-.62l.071-.144.076-.114c.168-.187.408-.288.645-.283zm96.686.34l.036.004c.16.042.315.098.466.17l.223.12 5.577 3.77c1.415.953 1.316 2.06-.255 3.182-.34.293-.56.698-.623 1.133l-.017.188V47.94c.078.637-.224 1.26-.81 1.611-1.976.514-4.005.786-6.025.811-.654.1-1.314-.144-1.751-.652-.24-.309-.393-.674-.445-1.064l-.018-.196v-3.214H82.519l-.001 1.47c0 1.04-.163 1.77-.507 2.18l-.098.104-.098.081c-.497.363-1.855.63-3.818.73-1.207.18-2.44.047-3.64-.425-.584-.68-.872-1.562-.81-2.433l.026-.238.001-45.1c.017-.217.112-.425.284-.595.165-.115.356-.129.605-.058l.13.042 8.527 3.502h26.289l3.267-3.71c.157-.215.294-.35.436-.41l.086-.027.088-.01zM39.608 29.373H24.701v14.926h14.907V29.373zm70.037-4.308h-9.307v18.438h9.307V25.065zm-18.24-.082h-8.886V43.42h8.886V24.983zM39.608 13.639H24.701v13.896h14.907V13.639zm51.797-7.305h-8.886v16.893h8.886V6.334zm18.24 0h-9.307v16.893h9.307V6.334z" transform="translate(55 40)"/>
            </g>
        </g>
    </g>
</svg>
