<svg xmlns="http://www.w3.org/2000/svg" width="240" height="160" viewBox="0 0 240 160">
    <g fill="none" fill-rule="evenodd">
        <g fill="#A5040E" fill-rule="nonzero">
            <g>
                <path d="M58.564 52.092c7.443 0 13.477 6.034 13.477 13.477.003 3.576-1.416 7.007-3.944 9.536-2.44 2.443-5.721 3.852-9.164 3.946l-.369.005c-7.326-.022-13.272-5.887-13.432-13.174l-.004-.313c0-7.322 5.841-13.284 13.123-13.472l.313-.005zm23.415 6.585l2.052.195c0 .584-.103 1.128-.185 1.64h5.59v11.58c0 1.18-.657 1.764-1.97 1.764h-2.738l-.318-2.153 2.41.071c.308 0 .462-.184.462-.543v-8.81h-3.774c-.062.184-.113.348-.175.502 1.26.632 2.47 1.359 3.62 2.174l-1.025 1.888c-1.082-.913-2.235-1.74-3.446-2.472-.973 1.225-2.27 2.152-3.744 2.677l-1.025-2.052c1.273-.264 2.4-.996 3.159-2.05.158-.224.289-.465.39-.719h-3.713v11.282h-2.154V60.513h6.39c.096-.608.16-1.221.194-1.836zM42.482 67.99c.152-.007.296.067.38.195.052.09.077.193.071.297 0 .123-.071.349-.133.656 0 .124.082.298.133.534.011.102.011.205 0 .307-.003.3-.034.599-.092.893-.044.234-.071.47-.082.707 0 .421-.051.688-.062.79-.047.464-.28.89-.646 1.18-.299.21-.66.315-1.025.297-.417-.008-.823-.136-1.17-.37-.174-.107-.332-.238-.471-.389-.037-.048-.062-.104-.072-.164.006-.1.045-.193.113-.267.06-.073.143-.123.236-.143.13.057.25.133.359.225l.369.288c.102.078.222.13.348.153h.277c.657 0 1.026-.512 1.026-1.528-.286.24-.653.36-1.026.339-.362-.055-.71-.18-1.025-.37l-.42-.215c-.191-.09-.334-.258-.39-.461-.107-.282-.162-.581-.165-.882.007-.079.007-.158 0-.236.097-.39.3-.744.585-1.026.126-.14.242-.287.349-.441.181-.23.468-.35.759-.318.22-.002.438.047.636.144.039-.064.109-.103.184-.103.144 0 .328.123.544.359.032-.108.07-.214.113-.318.067-.096.18-.147.297-.133zm-11.733.666c.174 0 .318.062.318.062v.544c.236-.26.548-.44.892-.513.168-.044.34-.068.513-.072.459.007.901.174 1.251.472.36.273.576.696.585 1.148-.006.226-.073.446-.195.636-.072.103-.103.175-.123.205-.165.491-.51.902-.964 1.15-.217.12-.46.183-.708.184-.26-.006-.513-.076-.739-.205-.204-.12-.385-.277-.533-.462 0 .062 0 .206-.039.427l-.022.117c-.053.246-.06.424-.062.515v.582c.001.093-.036.182-.102.246-.003.055-.02.109-.052.154-.1.002-.19-.06-.225-.154-.096-.234-.145-.485-.144-.738-.007-.127-.007-.253 0-.38 0-.256.082-.584.144-1.025.01-.11.01-.22 0-.328-.066-.096-.112-.204-.134-.318.019-.112.064-.218.134-.308v-.246c0-.554-.02-1.067-.062-1.539 0-.102.092-.154.267-.154zm65.538-10.194c1.037.799 2.001 1.688 2.882 2.656v-1.703c2.268-.027 4.525-.312 6.728-.85l.913 1.835c-1.885.465-3.813.74-5.754.82v1.785h5.426v1.61c-.091 1.901-.595 3.76-1.477 5.447-.062.122-.134.238-.215.348.638.665 1.363 1.24 2.154 1.713l-1.365 1.723c-.75-.572-1.438-1.221-2.05-1.938-.679.638-1.41 1.218-2.185 1.733L100.082 72c.867-.407 1.66-.955 2.349-1.62-.707-1.153-1.206-2.42-1.477-3.744-.082.83-.175 1.57-.287 2.226-.241 1.486-.658 2.94-1.241 4.328l-1.395-1.395c.143.41.256.81.348 1.19l-1.702.45c-.051-.297-.103-.594-.174-.902-1.416.39-2.852.708-4.288.964l-.38-2.05h.719v-7.919l-.585.472-.41-2.051c1.28-.975 2.393-2.153 3.292-3.487h1.436zm-35.508-.677h-2.05v3.518h-4.185V73.19h1.959v-.534h7.456v.534h1.99V61.313H60.82v-.923h5.384v-1.703H60.78v-.902zm-8.256 8.082c-.31 1.811-.81 3.585-1.49 5.291l-.264.637 2.093 1.19c.63-1.851 1.109-3.75 1.434-5.676l.114-.724-1.887-.718zM24.974 68.8c.107-.002.211.03.298.092.088.046.143.137.143.236-.004.108-.021.215-.05.318-.023.102-.04.204-.052.308.03.202.079.4.143.595.084.227.133.466.144.707-.01.172-.03.344-.062.513.118.248.187.516.206.79.005.06-.014.118-.052.164-.084.075-.194.115-.307.113-.108.011-.212-.04-.267-.133-.058-.094-.106-.194-.144-.298-.186.17-.406.3-.646.38-.263.093-.54.141-.82.143-.304.008-.604-.063-.872-.205-.179-.123-.335-.276-.462-.451-.289-.33-.465-.743-.502-1.18.003-.095.024-.189.061-.277.082-.205.226-.492.42-.861.13-.15.282-.28.452-.38.286-.158.607-.239.933-.236h.195c.06-.064.14-.107.226-.123.223.023.434.113.605.257l.051-.226c.016-.075.06-.141.123-.184.071-.044.153-.065.236-.062zm-10.4-.082c.462.044.88.292 1.139.677.124.193.195.416.205.646.01.164.052.324.123.472.067.135.109.28.123.43-.006.161-.077.312-.195.421-.366.433-.821.782-1.333 1.026-.253.094-.52.142-.79.143-.271 0-.534-.09-.749-.256-.228-.182-.417-.409-.553-.667-.129-.264-.209-.549-.236-.84-.003-.307.067-.61.205-.883.131-.256.325-.475.564-.636.24-.15.517-.228.8-.225h.144c.054-.205.239-.308.553-.308zm-4.646 0c.462.044.88.292 1.139.677.124.193.195.416.205.646.01.164.052.324.123.472.067.135.109.28.123.43-.007.161-.077.312-.195.421-.37.433-.828.783-1.344 1.026-.252.095-.52.143-.79.143-.267-.002-.526-.092-.738-.256-.228-.182-.417-.409-.554-.667-.139-.262-.229-.547-.266-.84-.008-.307.063-.611.205-.883.128-.258.323-.478.564-.636.245-.167.534-.257.83-.256h.155c.03-.205.215-.277.543-.277zm25.149 0c.108-.015.217.02.297.092.11.118.184.263.216.42.373-.196.788-.301 1.21-.307.43-.03.848.145 1.128.472.13.178.211.386.236.605.007.096.007.192 0 .287v.616c.017.191.055.38.113.564.043.123.074.25.092.38.015.106-.017.213-.088.294-.07.08-.174.127-.281.126-.41 0-.605-.431-.615-1.17v-.81c.002-.188-.072-.37-.206-.502-.14-.142-.335-.213-.533-.195-.37.012-.728.137-1.025.359v1.384c.02.304.02.61 0 .913 0 .113-.144.175-.35.195-.097-.005-.191-.033-.276-.082-.082 0-.123-.103-.113-.154.051-.697.082-1.138.082-1.333v-.667c-.063 0-.125-.022-.174-.061-.057-.046-.094-.112-.103-.185.022-.12.07-.232.144-.328-.071-.178-.133-.36-.185-.544.015-.104.061-.2.133-.277.077-.08.19-.115.298-.092zm-17.723-2.185c.13-.008.256.038.35.128.094.09.145.214.142.344l.01-.03c-.11.592-.172 1.192-.184 1.794.005.069.005.137 0 .205.449-.282.967-.435 1.497-.44.314.028.614.137.872.317.26.181.474.42.626.698.151.273.232.58.236.892-.012.556-.281 1.075-.729 1.405-.414.38-.955.593-1.518.595h-1.384c-.234-.022-.436-.172-.523-.39-.053-.092-.087-.192-.103-.297-.003-.143.04-.283.123-.4.06-.103.16-.174.277-.195l-.092-.82c-.08-.024-.152-.07-.205-.134-.06-.064-.097-.148-.103-.236.014-.179.1-.345.236-.461.017-.185.017-.37 0-.554v-1.22c-.014-.35.041-.699.164-1.026.05-.122.177-.194.308-.175zm-10.841.739c.102-.003.2.034.277.102.071.049.114.13.113.216v.636c.006.772.068 1.543.184 2.307l.123.882c.01.175.01.35 0 .523 0 .298-.102.452-.297.472-.103-.01-.2-.053-.277-.123-.076-.059-.122-.15-.123-.246-.022-.344-.063-.686-.123-1.026-.113-.748-.175-1.19-.195-1.333-.043-.45-.057-.902-.041-1.354v-.636c-.001-.113.039-.222.113-.307.063-.07.152-.11.246-.113zm20.502-.267c.152-.004.295.07.38.195.033.074.051.155.051.236-.011.056-.036.109-.072.154-.048.25-.079.504-.092.759 0 .287 0 .492.062.625.248-.136.527-.206.81-.205.369-.02.732.093 1.025.318.281.2.443.527.431.872v.523c-.005.282.05.562.164.82.12.15.12.364 0 .513-.069.082-.17.13-.277.134-.19-.032-.357-.15-.45-.318-.108-.185-.167-.392-.175-.605v-.82c.01-.2-.052-.397-.175-.555-.122-.15-.308-.234-.502-.225-.293-.003-.573.12-.77.338-.094.1-.159.224-.184.36 0 .255-.072.604-.133 1.025 0 .143 0 .297-.072.472-.072.174-.072.297-.133.492-.035.14-.154.243-.298.256-.186-.07-.306-.252-.297-.451 0-.082.061-.462.174-1.128 0-.216.062-.431.072-.636-.164 0-.257-.123-.277-.339.022-.208.144-.392.328-.492v-.144c.004-.05.004-.102 0-.153.012-.202.012-.404 0-.605-.01-.195-.01-.39 0-.585-.01-.144-.01-.287 0-.43 0-.268.174-.4.41-.4zm-3.548 2.687c-.268-.001-.526.102-.718.287-.1.09-.173.203-.216.329l-.184.328c-.012.054-.012.11 0 .164.006.037.006.076 0 .113.205.79.584 1.19 1.159 1.19.268 0 .529-.083.748-.236.185-.099.34-.244.452-.42l-.041.05c.061-.135.093-.282.092-.43.015-.311-.034-.622-.144-.913-.01-.066-.067-.114-.133-.113h-.226l-.553-.297c-.074-.035-.155-.053-.236-.052zm58.646-4.348l1.99.81c-.188.544-.41 1.075-.667 1.59 1.18.543 2.321 1.166 3.415 1.866l-.902 1.826c-1.096-.812-2.248-1.545-3.446-2.195-.124.174-.257.328-.39.492-.915.947-2.01 1.7-3.22 2.216l-1.026-2.052c1.025-.322 1.952-.897 2.697-1.671.711-.835 1.239-1.81 1.549-2.862v-.02zm-49.651 3.928l-.236.061c-.26.041-.505.151-.708.318-.178.128-.314.307-.39.513v.677c.155.278.352.53.585.749.114.1.252.17.4.205h.225c.354-.02.672-.222.841-.533.154-.267.339-.554.524-.872.008-.04.008-.083 0-.123-.015-.155-.076-.301-.175-.42-.126-.163-.283-.299-.461-.4-.183-.113-.392-.173-.605-.175zm-13.416-.093c-.254.008-.504.075-.728.195-.236.11-.454.255-.646.431.006.065.006.13 0 .195 0 .246.051.697.143 1.364.23.256.559.401.903.4.238-.008.469-.082.667-.215.233-.152.432-.351.584-.585.147-.207.229-.454.236-.708-.004-.062-.014-.124-.03-.184v-.02c-.041-.14-.115-.266-.216-.37-.124-.141-.27-.262-.43-.359-.143-.096-.311-.146-.483-.144zm-4.574.247c-.02.115-.097.212-.205.256-.143.073-.301.112-.462.113-.18.024-.355.083-.513.174-.145.078-.247.218-.277.38-.006.112-.006.225 0 .338.006.36.19.695.493.892.138.109.306.173.482.185.383-.019.748-.176 1.025-.44.135-.101.255-.218.36-.35.028-.064.032-.137.01-.205-.012-.074-.033-.146-.062-.215 0-.123-.072-.216-.082-.267l-.062-.236-.082-.256v.03c-.028-.108-.103-.198-.205-.246-.135-.062-.276-.114-.42-.153zm-4.646 0c-.023.113-.1.209-.205.256-.143.073-.301.112-.462.113-.181.022-.356.081-.513.174-.144.081-.248.219-.287.38v.338c.006.36.19.695.492.892.138.11.306.175.482.185.384-.019.748-.176 1.026-.44.134-.101.255-.218.359-.35.047-.055.075-.123.082-.195-.011-.074-.032-.146-.062-.215 0-.123-.071-.215-.082-.267l-.061-.235s-.113-.165-.144-.267v.03c-.033-.108-.112-.198-.215-.246-.132-.063-.27-.114-.41-.153zm128.082-.708c.021.766.004 1.533-.052 2.297-.827.046-1.655.116-2.484.191l-1.244.115c-2.696.248-5.396.456-8.077-.029-.04-.515-.04-1.033 0-1.548h.216c.969.087 1.98.1 2.997.097l1.529-.008c.508-.002 1.015 0 1.515.013 1.073.04 2.148-.05 3.2-.267.777-.345 1.58-.633 2.4-.861zm-97.149.01c-.225.027-.426.155-.544.349-.071.113-.153.226-.225.349l-.226.38c-.033.127-.054.257-.061.389.008.167.039.333.092.492.061.154.133.236.236.267.1.035.196.08.287.133l.308.195c.096.052.2.09.307.113h.144c.202-.005.4-.062.574-.164.16-.088.292-.22.38-.38v-1.313h-.154c-.097-.009-.186-.057-.246-.133l-.175-.38c-.011-.012-.025-.022-.04-.03-.19-.15-.417-.243-.657-.267zm54.882-8.4c-.315.426-.658.83-1.026 1.21l1.436-.102c.205.554.38 1.128.534 1.702h1.671v6.072h-3.661v1.939c.461-.062.943-.144 1.436-.246-.123-.329-.257-.647-.39-.975l1.436-.38c.28.538.534 1.089.759 1.652v.02c.966-2.323 1.421-4.828 1.333-7.343v-2.462l-1.19 1.529c-.694-.944-1.477-1.82-2.338-2.616zm-31.733 2.657v3.682c-.19-.242-.39-.474-.6-.698l-.323-.328-.852.913c.376.426.721.879 1.034 1.353l.228.36.513-.575v3.272h-2.893l.667-.523c-.288-.448-.61-.874-.961-1.274l-.27-.295-1.128.718c.286.32.55.66.792 1.014l.234.36h-3.846l.01-4.061c.308.332.596.684.86 1.052l.258.373 1.025-1.118c-.357-.421-.747-.813-1.167-1.173l-.32-.263-.666.698v-3.446h3.005l-.605.656c.397.352.771.73 1.118 1.13l.256.306 1.026-1.108c-.281-.275-.575-.536-.88-.783l-.31-.242h3.795zm-1.59.133c-.477.973-1.047 1.897-1.703 2.759-.752-.7-1.546-1.352-2.378-1.953l-.504-.355-1.025.79c1.058.797 2.059 1.668 2.995 2.605-.76.801-1.648 1.47-2.625 1.98l-.37.184.728 1.498c1.207-.682 2.297-1.55 3.23-2.575.634.705 1.217 1.454 1.743 2.241l.309.477 1.108-1.282c-.663-.896-1.383-1.749-2.154-2.554.543-.707 1.044-1.445 1.501-2.21l.335-.58-1.19-1.025zm40.01 1.59c.12 1.413.551 2.782 1.262 4.01.573-1.243.887-2.59.923-3.959l-2.185-.051zm43.241-9.877c.11 4.59-2.236 8.889-6.154 11.282-2.636 1.436-5.384 1.395-8.205 1.795-2.39.328-4.102.307-6.287-1.026-3.938-2.41-7.313-6.503-6.502-11.395.184-.102.225.03.482.154.904.148 1.798.354 2.676.615 1.765.329 3.488.677 5.231 1.026 3.074.697 6.252.801 9.364.308 2.34-.41 4.634-1.046 6.852-1.898.738-.277 1.743-.954 2.543-.861zM96.41 66.667h-1.815v1.025h1.815v-1.025zM22.082 60.05c.15-.01.293.066.37.195.067.073.107.167.112.267 0 .123-.072.349-.133.656 0 .123.082.308.133.534.006.105.006.212 0 .318-.002.296-.036.592-.102.882 0 .102 0 .338-.072.707-.063.323-.055.607-.066.742l-.006.048c-.036.46-.258.887-.615 1.18-.296.22-.657.335-1.026.328-.42-.01-.829-.138-1.18-.37-.17-.113-.328-.244-.471-.39-.1-.134-.077-.322.05-.43.06-.07.138-.12.227-.144.134.054.26.13.369.226l.369.287c.102.078.222.131.349.154h.277c.646 0 .974-.513.974-1.528-.285.24-.653.362-1.026.338-.362-.055-.71-.18-1.025-.369l-.42-.205c-.19-.098-.33-.268-.39-.472-.107-.282-.162-.58-.165-.882.007-.078.007-.157 0-.236.09-.392.294-.748.585-1.025.164-.199.277-.342.338-.431.183-.235.474-.36.77-.328.22-.002.437.048.636.143.039-.064.109-.103.184-.102.144 0 .328.123.544.359.032-.108.07-.214.113-.318.067-.096.18-.147.297-.134zm74.328 4.564h-1.815v.852h1.815v-.852zm-44.205-2.85l-1.333 1.363c.626.564 1.207 1.176 1.738 1.829l.313.397 1.487-1.641c-.673-.716-1.412-1.368-2.205-1.949zm-15.6-1.098c.339-.007.67.097.944.297.13.104.254.217.369.339l.072.082.215.236c.116.125.182.29.185.461.002.28-.205.518-.482.554l-1.077.205c-.475.115-.931.298-1.354.544.239.414.647.703 1.118.79.242.058.49.089.738.092.345-.014.689-.059 1.026-.134.087-.003.17.035.226.103.06.071.093.163.092.256.009.06-.007.121-.044.17-.036.048-.09.08-.15.087-.368.078-.743.12-1.119.123-.957.068-1.88-.377-2.42-1.17h-.062c-.061 0-.113 0-.174-.133-.062-.075-.098-.169-.103-.266 0-.073.034-.142.092-.185-.047-.15-.075-.305-.082-.462-.005-.572.22-1.123.626-1.528.21-.205.48-.34.77-.39.195-.04.394-.064.594-.071zm-11.467 0c.336-.007.664.098.934.297.135.099.26.212.369.339l.072.082.225.236c.117.125.182.29.185.461.002.283-.21.522-.492.554l-1.026.205c-.479.113-.939.296-1.364.544.24.412.649.7 1.118.79.245.059.496.09.749.092.345-.015.688-.06 1.025-.134.088-.003.171.035.226.103.06.071.093.163.092.256.009.06-.007.121-.043.17-.037.048-.092.08-.152.087-.367.078-.742.12-1.118.123-.957.068-1.879-.377-2.42-1.17h-.072c-.051 0-.113 0-.174-.133-.058-.078-.093-.17-.103-.266.008-.073.045-.14.103-.185-.048-.15-.075-.305-.082-.462-.008-.57.214-1.121.615-1.528.204-.198.46-.333.739-.39.195-.04.394-.065.594-.071zm-8.728.03c.463.041.882.29 1.139.677.128.192.2.416.205.647.01.163.052.323.123.471.069.138.11.288.123.441-.01.157-.08.304-.195.41-.367.433-.821.783-1.333 1.026-.253.094-.52.143-.79.144-.268 0-.529-.09-.738-.257-.235-.176-.424-.404-.554-.666-.138-.25-.231-.52-.277-.8-.002-.306.069-.608.205-.882.132-.26.33-.479.574-.636.235-.152.51-.23.79-.226h.144c.089-.232.283-.349.584-.349zm24.913-.184c.154 0 .236.123.236.38 0 .256 0 .215-.113.235-.175.066-.341.156-.492.267-.383.213-.677.554-.83.964.005.245-.022.49-.083.728-.029.111-.05.224-.062.339v.85c0 .227-.092.165-.276.175-.185.01-.288-.061-.329-.154-.013-.14-.013-.28 0-.42v-1.17c.004-.208.049-.414.134-.604 0-.329-.082-.729-.164-1.21.01-.07.057-.13.123-.155.076-.048.165-.073.256-.071.082-.02.154.01.185.071.048.136.079.278.092.421.004.061.004.123 0 .185.334-.42.8-.713 1.323-.831zm-10.03-1.498c.151-.006.296.068.379.195.038.073.056.154.051.236-.014.057-.042.11-.082.154-.044.25-.072.504-.082.759.006.213.023.425.051.636.246-.144.526-.219.81-.216.369-.013.73.099 1.026.318.273.207.433.53.43.872v.523c-.004.282.052.562.165.82.12.15.12.364 0 .514-.068.083-.17.132-.277.133-.191-.03-.358-.148-.451-.318-.108-.183-.165-.392-.164-.605-.008-.133-.008-.267 0-.4v-.42c.008-.198-.05-.393-.164-.554-.128-.148-.318-.228-.513-.216-.292-.005-.571.115-.77.328-.09.102-.15.226-.174.36 0 .256-.082.604-.133 1.025 0 .144 0 .297-.082.472-.082.174-.072.297-.134.492-.03.139-.146.242-.287.256-.19-.067-.314-.25-.307-.45 0-.083.061-.462.174-1.129.038-.21.062-.423.072-.636-.164 0-.257-.123-.277-.338.027-.21.153-.392.338-.493v-.143c.004-.051.004-.103 0-.154v-1.19c-.014-.143-.014-.287 0-.43 0-.267.134-.4.4-.4zM14.02 58.79c.225 0 .338.113.338.348.025.162-.085.313-.246.339-.257.072-.677.195-1.241.37 0 .338 0 .789-.072 1.363 0 .267-.02.523-.062.77-.012.228-.012.458 0 .687-.007.417.037.834.134 1.24.004.028.004.056 0 .083 0 .164-.103.256-.308.277-.205.02-.308-.052-.308-.216-.111-.436-.17-.883-.174-1.333v-.533c0-.226.082-.862.133-1.498v-.615c-.257.093-.508.207-.748.338l-.308.164h-.072c-.081-.006-.154-.052-.195-.123-.06-.075-.093-.17-.092-.266-.008-.12.056-.234.164-.288l.646-.318c.5-.24 1.018-.438 1.549-.594.283-.082.57-.147.862-.195zm14.523.195c.174 0 .174.02.174.082.14.456.242.922.308 1.395h.164c.111-.019.221-.046.328-.083l.236-.092c.133 0 .195.113.195.328 0 .216-.257.39-.76.41h-.133v2.954c0 .144-.112.185-.348.195-.236.01-.257-.061-.257-.133v-3.087c-.239-.074-.488-.108-.738-.103-.144 0-.216-.102-.216-.297s.113-.277.36-.277c.176 0 .352.024.522.072-.04-.377-.12-.748-.235-1.108 0-.08.049-.152.123-.185.082-.052.179-.077.277-.071zm-12.226 2.42c-.027.115-.107.21-.215.257-.14.071-.294.113-.452.123-.184.013-.363.07-.523.164-.143.08-.244.218-.277.38-.023.111-.04.224-.051.338.006.36.19.695.492.892.139.108.307.172.482.185.384-.02.748-.176 1.026-.441.134-.1.255-.218.359-.35.051-.051.08-.121.082-.194-.011-.074-.032-.146-.062-.215 0-.123-.071-.216-.082-.267l-.061-.236c-.02-.051-.051-.133-.082-.236h-.02c-.03-.108-.104-.198-.206-.246-.133-.061-.27-.113-.41-.154zm4.061-.646c-.22.03-.417.158-.533.349-.072.113-.154.225-.225.348l-.226.39c-.04.123-.061.25-.062.38.002.168.033.334.093.492.028.126.116.23.236.277.1.027.197.068.287.123l.307.195c.097.052.2.09.308.113h.133c.202-.007.4-.064.575-.164.165-.086.298-.223.38-.39v-1.313h-.144c-.1-.008-.193-.056-.257-.133 0-.103-.092-.226-.164-.38-.001-.014-.005-.028-.01-.04l-.03.02c-.192-.152-.424-.245-.668-.267zm73.98 1.128c-.425.44-.874.858-1.344 1.251v.021h1.775c-.118-.432-.262-.857-.431-1.272zm-69.292-.605c-.354 0-.691.153-.923.42-.236.267-.37.609-.38.965v.164c.425-.207.868-.375 1.323-.503l.964-.266c.062-.021.103-.041.103-.052 0 0 0-.113-.144-.225-.106-.134-.23-.251-.369-.35-.172-.106-.372-.16-.574-.153zm11.456 0c-.354 0-.69.153-.923.42-.243.264-.382.606-.39.965.006.054.006.11 0 .164.427-.203.87-.371 1.323-.503l.964-.266.134-.052s0-.113-.154-.225c-.112-.135-.244-.253-.39-.35-.169-.104-.365-.157-.564-.153zm16.195-3.118l-1.436 1.23c.71.563 1.375 1.176 1.994 1.835l.365.402 1.436-1.693c-.738-.653-1.527-1.246-2.36-1.774zm72.359-7.6c.985.164.687 1.385 1.487 1.887.45.283.748.215 1.024.12l.183-.064c.151-.05.306-.088.485-.056.575.103 1.323.513 1.97.636.628.144 1.273.206 1.918.185 1.415-.103 5.856-.431 6.153-2.328.134-.79 5.303 2.246 5.713 3.077-.461.225-.943.4-1.415.584-1.251.513-1.22.205-2.308.195-2.051 0-3.897 1.323-5.99 1.63-1.302.216-2.633.195-3.928-.06-1.63-.319-3.456 0-4.995-.74-1.63-.881-3.477-1.333-5.169-2.184.482-.164.646-.543 1.026-.78.38-.235.923-.256 1.261-.44.76-.41 1.6-1.826 2.585-1.662zM36.513 0c.23.01.46.037.687.082l.42.113v.472c.244 3.325.096 6.668-.44 9.959h4.174c3.692.04 7.497.082 11.21-.072.12-1.209.77-2.302 1.774-2.985 1.203-.751 2.7-.863 4-.297 2.41.933 2.606 3.61 2.78 5.938l.072.862h-.554c-4.595.225-9.354.451-13.98.451h-.697c.67 1.7.994 3.517.954 5.344.092 1.128.092 2.256.092 3.395 2.051.04 3.108-.729 4.667-1.908l.256-.195c.395-.317.768-.66 1.118-1.026.728-.748 1.528-1.425 2.226-1.24.697.184 1.18.974 1.61 2.645.412 1.266.149 2.655-.697 3.683-1.22 1.446-3.713 1.805-6.236 1.805-1.026 0-2.052-.062-3.077-.144v6.78c1.611-.163 3.19-.56 4.687-1.18 2.133-.78 4-1.446 5.128-.492.872.687 1.046 2.215.575 4.79v.287l-.267.112c-1.89.642-3.882.93-5.877.852-1.405 0-2.83-.093-4.185-.185V38c.082 2.995.113 6.256 0 9.23-.112 2.975-.482 5.929-2.44 7.324-.837.565-1.833.849-2.842.81-1.133-.03-2.255-.223-3.333-.574L38 54.687l-.051-.328c-.486-4.393-.586-8.82-.298-13.23.062-1.929.134-3.919.134-5.806 0-5.887.133-14.605.246-20.759-.677.03-1.354.062-1.99.113-.164.42-.318.84-.513 1.251-2.287 4.964-6.123 8.031-8.718 8.78-.437.127-.888.196-1.343.205-.545.016-1.083-.127-1.55-.41l-.266-.175v-.318c.164-2.277 1.375-4.707 2.544-7.056.664-1.239 1.236-2.524 1.713-3.846.195-.616.39-1.385.615-2.277l.126-.5c.985-3.908 2.494-9.321 6.366-10.157h.134c.443-.124.903-.183 1.364-.174zm96.861 47.19c1.385-.657 1.498-.216 2.647.615 1.394 1.005 2.215 2.985-.093 3.63-.759.206-1.466-.256-2.205-.163-.502.061-.83.39-1.302.513-.631.22-1.318.22-1.95 0-.41-.175-.615-.718-1.025-.77-.41-.05-.892.657-1.497.493-1.087-.298-.677-2.923.174-3.498.137-.09.281-.168.43-.236.678-.256.524.431 1.396.739 1.374.615 2.04-.667 3.425-1.323zm-30.871-6.36c1.58-.667 3.325-.839 5.005-.492h.071c2.165.031 4.154 1.2 5.929 2.226 1.06.696 2.209 1.248 3.415 1.641.217.068.374.257.4.482.51 2.011-.105 4.141-1.61 5.57-1.334 1.104-3.029 1.677-4.76 1.61-.929-.006-1.853-.137-2.748-.39-4.482-1.262-6.636-4.533-6.38-9.723.062-.4.315-.744.678-.923zM17.026 7.293c4.318-.205 5.6 1.22 5.877 2.452.707 2.718-2.882 6.769-6.565 8.574-.476.222-.975.394-1.487.513 1.734.082 3.2.595 3.61 1.754l.144.287V51.64h-7.897V20.749c.235-.723.851-1.255 1.6-1.385-1.636.252-3.289.382-4.944.39-2.615 0-5.067-.42-6.328-1.446-.909-.742-1.24-1.982-.82-3.077v-.195l.174-.103c1.999-1.088 4.218-1.709 6.492-1.815l.548-.07c3.093-.403 5.945-.928 7.883-4.289l.072-.133v-.082l.194-.277c.15-.399.459-.718.852-.882.118-.023.235-.054.348-.093zm80.277 2.493c.828-1.32 2.435-1.924 3.928-1.477l.307.092c.175.037.347.088.513.154.66.139 1.242.528 1.62 1.087 3.467 4.718-.666 25.744-.727 25.97-.923 4.768-4.154 8.286-7.077 11.22-2.619 2.81-6.254 4.453-10.093 4.564-.862 0-1.721-.093-2.564-.277-.173-.04-.315-.162-.38-.328-.933-2.38 1.642-4.503 3.919-6.38.857-.652 1.65-1.383 2.369-2.184.585-.739 1.18-1.405 1.754-2.052 2.088-2.026 3.599-4.571 4.38-7.374.659-2.758 1.037-5.576 1.127-8.41.083-1.282.288-2.482.288-3.672.082-1.426.082-2.841.082-4.256-.187-2.241 0-4.498.554-6.677zM76.03 22.687c1.095-.404 2.323-.201 3.23.534.472.471.924 1.046.883 2.861v24.554c0 .294-.24.533-.534.533h-5.6c-.294 0-.533-.239-.533-.533v-25.57l.027-.188c.22-1.223 1.169-1.8 2.527-2.19zm11.518-5.313c1.096-.08 2.185.229 3.077.872 3.282 2.092 2.871 5.344 2.461 7.395-.03.231-.195.422-.42.482-.318.062-.64.093-.964.092l-.303-.026c-2.21-.23-4.233-1.356-5.595-3.122-.997-1.16-1.378-2.727-1.026-4.216-.004-.04-.004-.082 0-.123.615-.914 1.67-1.43 2.77-1.354zm28.492.595c.432-.132.9-.08 1.292.144.174.063.305.21.35.39.45 1.866-.504 4.071-2.555 5.753-1.33 1.167-3.021 1.84-4.79 1.908-.656.009-1.307-.124-1.907-.39-1.426-.625-2.103-1.425-2-2.38.277-2.656 7.159-4.789 8.072-4.973.137-.045.277-.08.42-.103.211-.044.42-.098.626-.164zm-36.544-4.502c2.554 0 3.734 1.292 3.98 2.502.328 1.56-.656 3.693-3.539 4.944-3.02 1.458-6.301 2.298-9.65 2.472-.894.01-1.785-.104-2.647-.339-1.98-.584-3.005-1.323-3.005-2.349-.082-1.794 3.18-3.18 5.128-3.846 1.118-.39 2.236-.872 3.323-1.333 1.882-.878 3.848-1.566 5.867-2.051z" transform="translate(47 40)"/>
            </g>
        </g>
    </g>
</svg>
