<svg xmlns="http://www.w3.org/2000/svg" width="240" height="160" viewBox="0 0 240 160">
    <g fill="none" fill-rule="evenodd">
        <g fill-rule="nonzero">
            <g>
                <path fill="#E8380D" d="M0 0H200V100H0z" transform="translate(20 30)"/>
                <g>
                    <path fill="#FFF" d="M145.142 26.32l13.705 7.993c.089.05.134.154.112.254-.029.1-.121.167-.224.163h-3.87c-.036.01-.075.01-.112 0l-12.885-7.39.002.012c0 .072-.031.142-.088.19-2.724 2.035-5.66 3.77-8.757 5.172h18.094c.123 0 .224.1.224.224v7.596c.002.061-.02.12-.062.165-.043.044-.101.07-.162.07h-6.66c.847 2.273 2.084 4.382 3.656 6.23l2.342-4.968c.044-.077.125-.123.214-.123h2.82c.078-.002.15.037.193.102.037.07.037.154 0 .224l-3.43 6.965c2.004 1.736 4.243 3.176 6.648 4.278-1.803-1.569-2.943-3.88-2.943-6.457 0-4.724 3.83-8.553 8.553-8.553 4.724 0 8.553 3.83 8.553 8.553 0 4.723-3.83 8.552-8.553 8.552-1.33 0-2.59-.303-3.713-.845h-.014v.041c-.142 0-14.254-.743-18.46-14h-5.09v2.546l4.673-1.14h.061c.057 0 .112.021.153.06.057.056.084.135.071.214l-.56 2.627c-.008.088-.075.16-.162.173l-8.97 2.423h-.062c-.046.015-.096.015-.142 0-.054-.045-.083-.113-.082-.183v-2.76c.001-.104.072-.196.173-.223l1.161-.285V33.346c-2.403 1.025-4.922 1.755-7.5 2.172l-.645.098c-.108-.002-.2-.078-.224-.183-.022-.114.043-.227.152-.265 9.928-3.4 15.15-8.298 15.202-8.349.027-.026.06-.045.097-.054l.056-.007 2.756.338-.608-.348c-.083-.056-.121-.158-.096-.254.025-.096.109-.166.208-.174h4.073c.04-.01.082-.01.122 0zm21.392 15.904h-3.452l-.127.006c-.209.024-.405.118-.556.268-.18.18-.28.428-.274.683v3.88l-.105.005c-.422.052-.453.426-.455.852v5.302l.008.1c.047.29.3.511.603.511.337 0 .61-.273.61-.61v-4.694l.007-.065c.01-.042.031-.08.062-.111.047-.047.11-.072.176-.069h3.686l.065.006c.041.01.08.032.111.063.047.046.071.11.068.176v3.4l.014.081c.007.109-.03.217-.104.299-.092.103-.231.152-.368.13-.16 0-.315.064-.428.179-.113.115-.175.27-.172.431-.003.161.059.317.172.432.113.115.267.18.428.18h.896l.074-.006c.324-.045.71-.385.71-1.084v-4.551l-.002-.12c-.02-.473-.167-.838-.609-.838h-.081v-3.879l-.007-.126c-.026-.208-.12-.404-.27-.554-.18-.18-.426-.28-.68-.277zm-6.486 2.902h-1.72l-.1.008c-.29.047-.512.3-.512.603 0 .337.274.61.611.61h.082v1.019h-1.222l-.099.021c-.253.077-.433.312-.433.585 0 .307.227.566.532.606h1.222v3.288l-1.018.255-.093.029c-.118.048-.22.132-.289.242-.085.138-.113.304-.077.462.07.271.311.463.59.468h.143l3.055-.733.097-.02c.188-.057.34-.202.403-.392.074-.222.015-.466-.152-.63-.167-.163-.413-.217-.633-.139l-.774.183v-3.013h1.018l.1.004c.2-.007.385-.11.494-.282.128-.2.128-.456 0-.656-.127-.2-.359-.309-.594-.278h-1.048v-1.018h.417l.1-.008c.29-.048.51-.3.51-.603 0-.338-.273-.611-.61-.611zm5.478 3.808h-1.222l-.125.004c-.521.037-.74.313-.74.861v1.528l.007.108c.057.426.417.757.858.767h1.018l.125.002c.208-.012.407-.09.566-.228.191-.164.31-.398.327-.65V49.8l-.003-.11c-.018-.184-.095-.357-.223-.493-.153-.162-.365-.257-.588-.262zm-8.149.223h-.098c-.336.038-.58.337-.55.673l.122 1.222.02.099c.074.255.307.438.58.44h.062l.097-.017c.283-.074.48-.344.453-.644l-.123-1.222-.017-.098c-.074-.283-.344-.479-.644-.452zm7.894.815c.14 0 .255.114.255.255v.692l-.011.066c-.033.104-.13.179-.244.179h-.692l-.056-.007c-.108-.025-.188-.122-.188-.238v-.692l.008-.066c.028-.105.122-.184.236-.189zm-4.47-.804c-.155-.043-.321-.023-.46.058-.14.08-.242.214-.283.37l-.142.53-.019.093c-.014.127.012.256.076.368.08.14.214.24.37.281.054.01.11.01.163 0 .275.001.517-.182.59-.448l.143-.519.013-.096c.015-.286-.168-.553-.45-.637zm5.224-5.732c.136.005.244.118.244.254v.774h-1.252l-.126.004c-.52.038-.74.323-.74.872v1.496h-.56l-.053-.005c-.052-.01-.1-.039-.136-.08-.047-.055-.067-.128-.055-.2v-2.86l.008-.067c.029-.105.122-.184.236-.188zM93.948 8.146c.136 0 .249.107.254.244v1.334c0 .14-.114.254-.254.254H83.196v10.895h12.116c.14 0 .255.114.255.254v1.324c0 .14-.114.255-.255.255H83.817l7.046 13.073c1.079 1.924 5.09 8.37 11.505 10.508.121.043.19.17.163.295-.02.119-.124.205-.244.204l-.031-.01c-6.471-1.239-12.138-5.107-15.65-10.681l-4.744-8.675c-4.576 12.436-18.198 14.937-18.614 15.006l-.009.002c-.115-.004-.213-.085-.239-.197-.026-.112.026-.227.127-.282 14.919-6.965 15.657-17.762 15.68-18.432v-.811H65.856c-.137-.006-.244-.118-.244-.255v-1.324c0-.136.107-.249.244-.254h12.91V9.978H67.69c-.14 0-.255-.114-.255-.254V8.39c.006-.137.118-.244.255-.244h26.259zm72.026 37.357c.135 0 .244.109.244.244v.692l-.008.066c-.028.106-.122.184-.236.189h-.693l-.065-.011c-.104-.033-.179-.13-.179-.244v-.692l.007-.056c.025-.108.122-.188.237-.188zm-6.557-3.37h-.744L156.24 44.8l-.058.078c-.068.109-.1.238-.092.368.012.162.088.313.211.42.12.109.28.164.44.153.163-.012.313-.09.415-.215l1.874-2.148 1.364 1.344.074.06c.104.071.227.111.354.113.164-.004.32-.07.438-.183.115-.115.18-.27.18-.433 0-.162-.065-.318-.18-.433l-1.843-1.792zM142.25 9.621c.096.002.18.063.214.153l.906 2.331h3.258c.062 0 .12.025.162.07.043.044.065.103.062.164v7.922c0 .124-.1.224-.224.224h-7.127v2.352l3.696-.957-.438-1.018c-.03-.07-.025-.15.016-.213.042-.064.112-.103.188-.103h2.525c.094-.002.18.055.214.143l1.945 4.693c.03.07.024.15-.017.213-.04.064-.111.103-.187.103h-2.393c-.089.002-.17-.05-.203-.132l-.683-1.538-8.624 2.627h-.112c-.046.015-.096.015-.142 0-.056-.045-.09-.112-.092-.183V24.12c-.002-.104.071-.194.173-.214l.825-.214v-4.625l-.032.158c-2.368 11.126-11.953 14.454-15.228 15.272-1.233 5.491-5.194 5.853-5.93 5.872l-.07.001-.081-.061c-.114-.01-.208-.092-.234-.204-.02-.108.028-.217.122-.275 3.203-1.726 2.69-7.432 2.668-7.717V16.83h-9.683c-.002 2.017-.203 4.03-.601 6.007-1.072 5.988-5.39 10.88-11.2 12.686h-.071c-.095-.004-.18-.058-.224-.142-.053-.111-.019-.244.081-.316 4.035-2.796 6.78-7.084 7.639-11.905l.069-.415s.275-2.036.458-5.926h-7.199c-.14 0-.254-.114-.254-.254v-1.293c0-.14.114-.255.254-.255h24.172c.14 0 .255.114.255.255v18.24c4.919-2.788 8.399-6.445 10.354-10.97l-5.192 1.16c-.052-.001-.102-.019-.143-.05-.058-.039-.092-.104-.091-.174V22.3c-.005-.035-.005-.069 0-.103v-.386c.002-.108.077-.201.183-.224h.224l2.362-3.758-3.4.846h-.153c-.043.015-.09.015-.133 0-.058-.039-.092-.104-.091-.174v-1.67c.002-.107.077-.2.183-.223l.774-.163 3.726-5.916c.038-.07.113-.114.194-.112h2.82c.084.003.161.05.204.122.04.073.04.161 0 .234l-3.187 4.908.438-.092.957-1.517c.038-.07.113-.114.193-.112h2.82c.085.003.162.05.204.123.04.072.04.16 0 .234l-4.215 6.547 2.138-.5c.179-.558.329-1.125.448-1.7.143-.62.244-1.252.326-1.873.013-.107.097-.19.203-.204l2.882-.285c.02 0 .041.002.061.007V12.34c0-.062.025-.121.069-.165.044-.044.103-.069.165-.069h4.073l-.937-2.158c-.034-.071-.034-.154 0-.224.044-.064.116-.102.194-.102h2.494zM62.12 4.908c.134 0 .244.11.244.244v1.334c0 .137-.108.249-.245.254H51.581v11.262h12.106c.14 0 .255.113.255.254v1.334c0 .14-.114.254-.255.254H52.56l9.917 18.399c.046.075.046.17 0 .244-.044.077-.126.123-.214.123h-3.818c-.094 0-.18-.051-.224-.133L50.4 24.162c-4.48 12.91-18.633 15.384-18.775 15.405l-.051.01c-.113 0-.213-.075-.245-.183-.036-.118.02-.245.133-.296 11.872-5.55 14.76-13.553 15.458-16.9l.05-.245c.142-.748.168-1.215.172-1.304v-.805h-12.9c-.141 0-.255-.114-.255-.254v-1.334c0-.14.114-.254.254-.254h12.911V6.74H35.84c-.14 0-.255-.114-.255-.254V5.152c.006-.137.118-.244.255-.244h26.28zm85.527 32.368h-12.422v1.69h12.422v-1.69zm0-2.76h-12.422v.958h12.422v-.958zm-2.383-4.235c.124 0 .224.1.224.224v1.344c0 .124-.1.224-.224.224h-6.832c-.13 0-.234-.105-.234-.234v-1.293c-.009-.068.012-.135.057-.186.045-.051.11-.08.177-.08h6.832zm9.164-19.478c.125 0 .228.099.234.224v1.344c0 .13-.105.234-.234.234h-3.483v14.58c0 .062-.024.12-.069.163-.044.042-.104.064-.165.062h-2.82c-.124 0-.224-.1-.224-.224V11.027c0-.124.1-.224.224-.224h6.537zm2.616 5.987c.13 0 .235.105.235.234v2.2c-.442 2.769-1.46 4.72-3.055 5.854-.802.59-1.764.924-2.76.957h-.07c-.102-.013-.186-.085-.214-.183-.02-.1.03-.2.122-.245 3.32-1.792 2.708-7.779 2.698-7.84v-.743c-.003-.061.02-.12.062-.165.042-.044.1-.07.162-.07h2.82zm-13.47.316H139.5v1.578h4.073v-1.578zm14.987-6.018c.082.002.157.05.194.122.04.07.04.155 0 .224l-3.136 5.173c-.043.07-.12.113-.204.112l-2.678-.02c-.079-.003-.152-.045-.193-.113-.04-.07-.04-.154 0-.224l2.993-5.162c.047-.067.123-.108.204-.112h2.82zM118.303.265c.104.001.196.066.234.163l5.844 14.458c.036.074.036.16 0 .234-.048.071-.128.113-.214.112l-2.657.04c-.102.001-.194-.059-.234-.152l-4.694-11.393h-11.943c-.137 0-.25-.108-.255-.245V2.148c0-.14.114-.254.255-.254h11.2l-.54-1.283c-.047-.071-.047-.163 0-.234.045-.07.121-.112.204-.112h2.8zm25.27 13.643h-4.072v1.365h4.073v-1.365zM103.6 0c.083-.001.16.041.204.112.04.07.04.155 0 .224L99.578 11.71c-.037.097-.13.162-.234.163h-2.607c-.082-.001-.16-.038-.213-.102-.03-.075-.03-.159 0-.234L100.566.163c.043-.097.138-.16.244-.163h2.79z" transform="translate(20 30) translate(15 24)"/>
                    <path fill="#F8B300" d="M16.19 9.836c-12.107.998-13.125 8.247-13.186 8.491-.019.046-.019.097 0 .143.029.044.074.074.126.084.052.01.106-.002.149-.033.074-.034.119-.112.112-.194.264-.727.631-1.412 1.089-2.036 3.676-5.335 12.554-3.452 12.554-3.452.163-1.076-.145-2.17-.845-3.003z" transform="translate(20 30) translate(15 24)"/>
                    <path fill="#C30D23" d="M4.551 16.81C1.741 28.642 8.32 31.87 8.532 31.971c.047.015.097.015.143 0 .103-.038.16-.148.132-.255-.014-.057-.056-.103-.112-.122-.624-.47-1.176-1.03-1.639-1.66-3.92-5.182.6-13.002.6-13.002-.969-.485-2.1-.53-3.105-.122z" transform="translate(20 30) translate(15 24)"/>
                    <path fill="#FFF" d="M8.848 30.25c10.385 6.323 15.487 1.07 15.65.896.031-.04.049-.09.05-.142.003-.053-.016-.105-.053-.144-.036-.038-.087-.06-.14-.06-.059.002-.114.028-.153.071-.647.445-1.357.788-2.107 1.019-6.11 2.128-12.219-4.592-12.219-4.592-.753.789-1.128 1.866-1.028 2.952z" transform="translate(20 30) translate(15 24)"/>
                    <path fill="#EA5514" d="M22.583 30.708c9.225-7.921 5.804-14.397 5.692-14.61-.02-.046-.056-.083-.102-.102-.05-.02-.105-.018-.154.006-.048.023-.084.065-.1.116-.026.051-.026.111 0 .163.232.755.352 1.54.356 2.331.122 6.496-8.146 10.182-8.146 10.182.506.96 1.4 1.657 2.454 1.914z" transform="translate(20 30) translate(15 24)"/>
                    <path fill="#F39800" d="M27.44 17.981c-4.694-11.22-11.903-9.968-12.157-9.927-.051.013-.097.042-.132.081-.072.078-.072.197 0 .275.05.03.112.03.162 0 .79.008 1.573.139 2.322.387 6.221 1.884 7.127 10.874 7.127 10.874 1.097-.145 2.075-.762 2.678-1.69z" transform="translate(20 30) translate(15 24)"/>
                    <path fill="#F8B300" d="M12.442 8.807c0 .563-.456 1.019-1.018 1.019s-1.018-.456-1.018-1.019c0-.562.456-1.018 1.018-1.018s1.018.456 1.018 1.018z" transform="translate(20 30) translate(15 24)"/>
                    <path fill="#C30D23" d="M2.708 22.196c.004.549-.323 1.046-.828 1.259-.506.213-1.09.1-1.48-.287-.39-.387-.507-.97-.298-1.477.21-.508.704-.839 1.252-.839.358-.002.703.138.957.39.254.253.397.596.397.954z" transform="translate(20 30) translate(15 24)"/>
                    <path fill="#F39800" d="M28.52 12.218c0 .765-.62 1.385-1.385 1.385s-1.385-.62-1.385-1.385.62-1.384 1.385-1.384c.764 0 1.384.62 1.384 1.384z" transform="translate(20 30) translate(15 24)"/>
                    <path fill="#EA5514" d="M30.016 28.682c0 1.024-.83 1.853-1.853 1.853-1.024 0-1.853-.83-1.853-1.853 0-1.023.83-1.853 1.853-1.853.492-.003.965.192 1.313.54.348.348.543.82.54 1.313z" transform="translate(20 30) translate(15 24)"/>
                    <path fill="#FFF" d="M12.554 34.12c0 .562-.456 1.018-1.018 1.018s-1.018-.456-1.018-1.019c0-.562.456-1.018 1.018-1.018s1.018.456 1.018 1.018z" transform="translate(20 30) translate(15 24)"/>
                    <path fill="#F39800" d="M70.641 49.138c.191-.006.376.054.526.169l.085.075c.032.071.032.153 0 .224-.011.087-.055.167-.122.224-.065.055-.149.084-.234.081-.058.005-.115-.01-.161-.043l-.043-.038c-.058-.054-.134-.083-.213-.082-.086.023-.16.073-.214.143-.076.065-.127.156-.143.255-.012.089.01.18.061.254.06.073.15.115.245.112.39-.015.765.15 1.018.448.253.31.357.716.285 1.11-.07.428-.29.818-.621 1.1-.32.292-.738.455-1.171.458-.393.015-.77-.155-1.018-.458-.264-.313-.366-.732-.275-1.13.008-.089.053-.17.122-.225.064-.058.148-.09.234-.091.079-.003.154.031.204.091.051.063.073.144.06.224-.047.234.013.477.164.662.152.184.382.286.62.275.258 0 .505-.099.693-.275.202-.167.336-.403.377-.662.047-.235-.017-.479-.173-.661-.15-.183-.376-.284-.611-.275-.246.006-.482-.098-.641-.285-.164-.195-.231-.453-.184-.703.044-.271.185-.518.397-.692.197-.19.46-.292.733-.285zm-31.482-.02c.44-.015.869.128 1.21.4l.124.108c.051.063.074.144.061.224-.017.088-.064.167-.132.224-.065.058-.148.09-.234.092-.079.004-.155-.03-.204-.092l-.01.01c-.251-.217-.574-.333-.906-.325-.446-.003-.875.165-1.202.468-.341.287-.566.689-.631 1.13-.084.404.021.824.285 1.14.253.3.626.471 1.018.469.446-.005.874-.176 1.202-.479.21-.148.375-.349.482-.58l.057-.143h-.875c-.082.005-.16-.03-.214-.091-.051-.063-.074-.144-.061-.224.017-.088.063-.167.132-.224.064-.058.148-.09.234-.092h1.242c.079-.002.154.032.204.092.051.062.074.144.061.224-.1.586-.408 1.117-.865 1.497-.455.42-1.051.652-1.67.651-.564.023-1.106-.218-1.466-.651-.364-.444-.51-1.027-.397-1.589.093-.616.408-1.177.885-1.578.456-.42 1.051-.655 1.67-.662zm51.53-.052c.08.002.155.04.204.102.051.063.074.144.061.224l-.59 3.839c-.014.089-.061.169-.133.224-.063.06-.147.092-.234.091-.059.002-.116-.016-.162-.051l-.042-.04-2.036-3.126-.458 2.953c-.009.088-.053.169-.122.224-.068.059-.155.092-.245.091-.078.003-.153-.031-.203-.091-.051-.063-.074-.145-.061-.224l.59-3.839c.017-.088.064-.167.133-.224.063-.06.146-.096.234-.102.08 0 .155.038.203.102.008.027.008.055 0 .081l2.037 3.055.458-2.963c.013-.089.06-.17.132-.224.063-.062.146-.099.234-.102zm-14.468.051c.083 0 .162.037.214.102.036.07.036.154 0 .224l-.59 3.839c-.01.088-.053.169-.123.224-.067.059-.154.092-.244.091-.079.003-.154-.031-.204-.091-.051-.063-.073-.145-.06-.224l.335-2.18h-2.413l-.336 2.18c-.009.088-.053.169-.122.224-.065.058-.148.09-.234.091-.082.004-.16-.03-.214-.091-.051-.063-.074-.145-.061-.224l.6-3.839c.009-.088.053-.17.123-.224.063-.06.146-.096.234-.102.083 0 .161.037.214.102.05.063.073.144.06.224l-.162 1.018h2.464l.153-1.018c.016-.088.063-.167.132-.224.064-.06.147-.096.234-.102zm42.082 0c.565-.023 1.109.222 1.466.662.37.436.52 1.018.407 1.578-.09.62-.406 1.186-.886 1.589-.456.417-1.051.65-1.67.651-.566.025-1.112-.216-1.476-.651-.364-.444-.51-1.027-.397-1.589.094-.616.409-1.177.886-1.578.455-.42 1.05-.655 1.67-.662zm-4.063 0c.331-.018.65.127.855.387.212.255.298.591.234.916-.06.36-.244.687-.519.927-.278.252-.643.387-1.018.377h-.906l-.245 1.558c-.008.09-.057.172-.132.224-.063.06-.147.092-.234.091-.078.003-.154-.031-.204-.091-.05-.063-.073-.145-.06-.224l.59-3.839c.017-.088.063-.167.132-.224.062-.063.146-.099.234-.102h1.273zm-47.926-.01c.079-.002.154.031.204.092.05.066.072.15.06.234-.021.085-.067.163-.131.224-.065.058-.148.09-.235.091h-.906l-.55 3.534c-.008.088-.052.169-.122.224-.067.059-.154.092-.244.091-.079.003-.154-.031-.204-.091-.051-.063-.073-.145-.06-.224l.549-3.534h-.927c-.078.003-.153-.03-.203-.091-.054-.061-.077-.144-.061-.224.01-.09.054-.174.122-.234.067-.06.154-.092.244-.092h2.464zm-22.003.01c.547-.003 1.067.24 1.416.662.369.436.519 1.018.407 1.578-.09.62-.406 1.186-.886 1.589-.456.417-1.052.65-1.67.651-.567.025-1.112-.216-1.476-.651-.346-.452-.473-1.034-.346-1.589.093-.616.408-1.177.885-1.578.456-.42 1.051-.655 1.67-.662zm57.609 0c.08.002.155.04.204.102.05.063.073.144.06.224l-.59 3.839c-.017.087-.064.166-.132.224-.065.058-.148.09-.234.091-.082.003-.16-.03-.214-.091-.036-.07-.036-.154 0-.224l.336-2.18h-2.515l-.336 2.18c-.013.089-.06.169-.132.224-.064.06-.148.092-.235.091-.078.003-.153-.031-.203-.091-.057-.06-.08-.144-.061-.224l.59-3.839c.014-.09.061-.17.133-.224.062-.063.146-.099.234-.102.08.002.154.04.203.102.052.063.074.144.061.224l-.152 1.018h2.454l.162-1.018c.009-.088.053-.17.123-.224.066-.062.153-.099.244-.102zm7.993-.01c.081-.004.16.03.214.092.05.066.072.15.06.234-.021.085-.067.163-.132.224-.064.058-.147.09-.234.091h-.967l-.54 3.534c-.013.089-.06.169-.132.224-.063.06-.147.092-.234.091-.079.003-.154-.031-.204-.091-.051-.063-.073-.145-.061-.224l.54-3.534h-.917c-.081.003-.16-.03-.214-.091-.03-.072-.03-.152 0-.224.011-.09.055-.174.123-.234.067-.06.154-.092.244-.092h2.454zm-4.857.01c.565-.019 1.107.226 1.466.662.366.438.515 1.018.407 1.578-.099.62-.417 1.183-.896 1.589-.455.418-1.05.65-1.67.651-.563.023-1.105-.218-1.466-.651-.365-.443-.515-1.025-.407-1.589.098-.617.416-1.178.896-1.578.455-.421 1.05-.657 1.67-.662zm-11.2 0c.44-.012.868.13 1.21.402l.124.107c.036.07.036.154 0 .224-.009.088-.053.17-.122.224-.065.058-.148.09-.235.092-.081.004-.16-.03-.213-.092l.081.01c-.25-.22-.574-.336-.906-.325-.442 0-.868.167-1.191.468-.341.289-.569.69-.642 1.13-.075.405.033.823.295 1.14.253.3.626.473 1.019.469.443-.004.868-.175 1.19-.479.216-.143.384-.344.487-.578l.054-.145h-.886c-.079.003-.154-.03-.204-.091-.051-.063-.073-.144-.061-.224.013-.087.057-.166.122-.224.069-.058.155-.09.245-.092h1.232c.081-.004.16.03.213.092.037.07.037.154 0 .224-.095.58-.39 1.11-.835 1.497-.455.418-1.05.65-1.67.651-.563.023-1.105-.218-1.466-.651-.365-.443-.515-1.025-.407-1.589.102-.616.42-1.175.896-1.578.455-.421 1.05-.657 1.67-.662zm29.313-.01c.08-.004.155.03.204.092.06.061.084.15.061.234-.013.086-.056.166-.122.224-.067.06-.154.092-.244.091h-.957l-.54 3.534c-.017.087-.064.166-.132.224-.065.058-.148.09-.235.091-.081.004-.16-.03-.213-.091-.037-.07-.037-.154 0-.224l.54-3.534h-.917c-.082.005-.16-.03-.214-.091-.05-.064-.071-.144-.061-.224.02-.09.066-.171.132-.234.065-.058.148-.091.234-.092h2.464zm-36.613.112c.036.07.036.154 0 .224l-.59 3.839c-.01.088-.054.169-.123.224-.068.059-.155.092-.244.091-.079.003-.154-.031-.204-.091-.051-.063-.074-.145-.061-.224l.59-3.839c.017-.088.064-.167.133-.224.064-.06.146-.096.234-.102.1-.018.202.022.265.102zm-27.715-.143c.082.002.16.039.214.102.053.062.072.146.05.224l-.59 3.839c-.009.088-.053.169-.122.224-.068.06-.155.092-.245.091-.078.003-.153-.03-.203-.091-.051-.063-.074-.144-.061-.224l.488-3.146-1.527 1.201c-.061.049-.136.077-.214.082-.49-.356-.934-.77-1.323-1.232l-.479 3.136c-.017.087-.064.166-.132.224-.065.058-.148.09-.234.091-.082.004-.161-.03-.214-.091-.053-.062-.073-.146-.051-.224l.59-3.839c.009-.088.053-.17.123-.224.066-.062.153-.099.244-.102.06.001.117.023.162.06l.042.042 1.384 1.436 1.874-1.487c.06-.057.14-.09.224-.092zm-8.92.041c.081 0 .159.033.214.092.038.073.038.16 0 .234l-.397 2.607c-.075.424-.294.808-.62 1.089-.279.248-.626.403-.993.446l-.151.01-.133-.005c-.336-.034-.648-.198-.867-.46-.25-.3-.353-.697-.28-1.08l.407-2.607c.005-.092.05-.178.122-.234.065-.058.148-.09.234-.092.082-.004.161.03.214.092.054.061.077.144.061.224l-.407 2.617c.004.016.004.034 0 .05-.025.213.037.426.173.591.125.152.302.248.494.27l.117.005c.257-.001.505-.1.692-.275.184-.15.31-.358.357-.59-.006-.017-.006-.035 0-.051l.397-2.617c.015-.089.062-.168.132-.224.064-.06.147-.093.234-.092zm33.743-.02c.33-.007.645.137.857.39.212.254.297.59.232.913-.05.36-.236.688-.519.916l-.112.102.703 1.68c.015.05.015.103 0 .153.004.03.004.061 0 .092-.032.084-.093.153-.173.193-.054.013-.11.013-.163 0h-.072c-.077-.017-.141-.07-.173-.142l-.743-1.69c-.078.009-.156.009-.234 0h-.957l-.245 1.557c-.008.088-.052.17-.122.224-.064.058-.147.09-.234.092-.082.004-.16-.03-.214-.092-.05-.062-.073-.144-.06-.224l.6-3.838c.008-.089.053-.17.122-.224.064-.06.147-.097.234-.102h1.273zm-31.217 0c.33-.018.65.126.855.387.214.253.304.59.244.916-.059.357-.243.682-.52.916l-.121.102.702 1.68c.015.05.015.103 0 .153.005.03.005.061 0 .092-.038.082-.102.15-.183.193-.053.015-.11.015-.163 0h-.081c-.075-.018-.136-.071-.163-.142l-.733-1.69c-.078.01-.157.01-.235 0h-.957l-.234 1.557c-.017.088-.064.167-.132.224-.065.058-.148.09-.234.092-.079.004-.155-.03-.204-.092-.057-.06-.08-.144-.061-.224l.59-3.838c.009-.089.053-.17.123-.224.066-.063.153-.099.244-.102h1.263zm10.11.02c.08.002.155.04.204.102.051.063.073.144.06.224-.019.087-.065.165-.132.224-.064.058-.147.09-.234.092h-2.128l-.112.702h.886c.081-.003.158.035.204.102.051.063.073.144.06.224-.014.088-.062.168-.132.224-.063.06-.147.093-.234.092h-.916l-.255 1.843h2.128c.082-.005.16.03.214.091.051.063.074.144.061.224-.017.088-.063.167-.132.224-.064.058-.148.09-.234.092H59.42c-.082.004-.16-.03-.214-.092-.036-.07-.036-.154 0-.224l.54-3.818c.008-.088.053-.17.122-.224.064-.06.147-.096.234-.102h2.454zm16.75-.04c.079.001.154.038.203.101.005.027.005.055 0 .082l1.242 3.818c.021.052.021.11 0 .163-.017.087-.064.167-.132.224-.06.059-.14.092-.224.091-.082.005-.16-.03-.214-.091l-.004-.046.004-.046-.346-1.018h-2.088l-.682 1.018c-.018.035-.042.066-.071.092-.064.058-.148.09-.234.091-.079.003-.154-.03-.204-.091-.051-.063-.073-.144-.061-.224.013-.055.037-.107.071-.153l2.424-3.818.081-.092c.064-.06.147-.096.234-.102zm38.904.682v.02c-.445.002-.873.169-1.202.468-.341.287-.566.69-.63 1.13-.084.404.02.824.284 1.14.254.3.626.472 1.018.47.915-.036 1.68-.707 1.833-1.61.082-.4-.023-.816-.285-1.13-.246-.31-.622-.49-1.018-.488zm-13.257 0v.02c-.442 0-.867.167-1.191.468-.341.289-.569.69-.642 1.13-.079.404.026.822.286 1.14.254.299.626.47 1.018.47.44-.006.865-.172 1.191-.47.343-.29.57-.695.641-1.14.075-.401-.033-.816-.295-1.13-.244-.307-.615-.487-1.008-.488zm-60.785 0v.02c-.445 0-.874.167-1.202.468-.341.287-.566.69-.631 1.13-.083.404.021.824.285 1.14.253.3.626.472 1.018.47.915-.036 1.68-.707 1.833-1.61.077-.4-.027-.814-.285-1.13-.247-.31-.622-.49-1.018-.488zm34.984.387l-1.018 1.578h1.528l-.51-1.578zm34.985-.398h-.947l-.163 1.344h.957c.185.001.363-.068.5-.193.145-.122.243-.291.274-.479.034-.17-.01-.345-.122-.478-.123-.145-.31-.218-.499-.194zm-61.783 0h-.957l-.204 1.344h.947c.188.003.37-.066.51-.193.145-.122.243-.291.274-.479.026-.17-.022-.345-.132-.478-.106-.132-.27-.204-.438-.194zm31.228 0h-.968l-.214 1.344h.958c.187 0 .368-.068.509-.193.142-.123.236-.292.264-.479.034-.17-.01-.345-.122-.478-.105-.126-.263-.198-.427-.194z" transform="translate(20 30) translate(15 24)"/>
                </g>
            </g>
        </g>
    </g>
</svg>
