<svg xmlns="http://www.w3.org/2000/svg" width="240" height="160" viewBox="0 0 240 160">
    <g fill="none" fill-rule="evenodd">
        <g>
            <path fill="#72AD3A" fill-rule="nonzero" d="M112.685 71.919c0 39.725-25.224 71.919-56.342 71.919C25.223 143.838 0 111.644 0 71.918 0 32.195 25.224 0 56.343 0c31.118 0 56.342 32.2 56.342 71.919z" transform="translate(64 8)"/>
            <path fill="#FFF" fill-rule="nonzero" d="M56.41 136.286c-23.513 0-43.849-20.707-48.365-49.237l.595-.095c4.462 28.24 24.554 48.737 47.77 48.737 23.216 0 43.315-20.498 47.777-48.737l.588.095c-4.51 28.557-24.845 49.237-48.365 49.237z" transform="translate(64 8)"/>
            <path fill="#FFF" fill-rule="nonzero" d="M56.41 121.555c-15.8 0-29.564-14.197-33.471-34.479l.588-.115c3.847 20.025 17.374 34.013 32.883 34.013 15.509 0 29.07-13.988 32.89-34.013l.588.115c-3.907 20.289-17.672 34.479-33.478 34.479z" transform="translate(64 8)"/>
            <path fill="#FFF" fill-rule="nonzero" stroke="#FFF" stroke-width=".5" d="M92.971 104.153l-.419 1c-.12.32-.296.616-.52.873-.168.175-.385.295-.622.345-.227.048-.464.025-.676-.068-.202-.08-.374-.219-.494-.399-.135-.2-.208-.435-.21-.676-.151.194-.337.36-.547.487-.164.093-.346.149-.534.162-.192.012-.384-.02-.561-.094-.368-.153-.646-.464-.758-.846-.126-.45-.083-.931.122-1.352l.582-1.392 4.637 1.96zm-2.616-.514l-1.792-.75-.27.629c-.128.27-.21.56-.243.858-.009.192.038.382.135.548.09.156.227.279.392.351.203.085.432.085.635 0 .232-.1.43-.268.568-.48.173-.278.32-.573.44-.878l.135-.278zm1.954.818l-1.488-.622-.121.291c-.12.257-.2.53-.237.811-.01.182.033.363.122.521.083.145.211.259.365.325.195.083.417.07.602-.034.233-.17.41-.405.507-.676l.25-.616zM86.17 109.426l-.405.284c-.147-.228-.248-.483-.298-.75-.044-.244-.044-.493 0-.737.054-.267.153-.523.29-.757.256-.524.724-.913 1.285-1.068.487-.136 1.007-.073 1.447.176.408.223.717.593.865 1.034.211.58.147 1.224-.175 1.75-.294.565-.825.967-1.447 1.096-.465.092-.947.008-1.352-.237l1.805-3.19c-.35-.199-.765-.245-1.15-.129-.383.121-.703.388-.892.744-.102.178-.173.372-.21.574-.033.188-.033.38 0 .568.046.225.126.442.237.642zm.872.494c.436.138.911.046 1.264-.243.188-.145.345-.327.46-.534.38-.598.28-1.382-.236-1.866l-1.488 2.643zM87.502 111.894l-.297.44-3.077-2.09.291-.432 3.083 2.082zm1.122 1.075c-.06.097-.158.165-.27.19-.103.023-.21.003-.298-.056-.087-.059-.146-.152-.162-.256-.017-.111.01-.225.074-.317.06-.095.155-.163.264-.19.105-.028.216-.008.304.054.089.062.148.157.163.264.015.11-.011.22-.075.311zM86.603 113.26l-.331.405-.521-.412c.064.296.064.603 0 .9-.062.282-.19.545-.372.77-.176.224-.41.397-.676.5-.246.093-.515.11-.77.047-.361-.12-.695-.31-.98-.56l-1.495-1.197.325-.413 1.352 1.109c.208.187.434.352.676.494.208.108.45.132.676.067.23-.068.43-.21.568-.405.191-.242.3-.538.31-.846.028-.285-.036-.571-.182-.818-.221-.253-.47-.48-.744-.676l-1.068-.851.332-.413 2.9 2.299zM81.012 119.405l-.372.365-2.028-2.136c-.28-.268-.508-.584-.676-.933-.129-.342-.129-.72 0-1.062.134-.4.366-.76.676-1.047.225-.225.486-.412.77-.555.232-.118.485-.19.744-.21.278-.006.554.045.811.15l-.412.391c-.265-.074-.546-.074-.811 0-.295.107-.561.28-.778.507-.233.207-.414.467-.527.758-.087.214-.109.45-.06.676.102.287.273.545.5.75l.135.135c-.02-.3.034-.602.155-.879.276-.629.811-1.108 1.467-1.311.337-.09.691-.09 1.028 0 .322.081.615.253.845.493.24.245.403.556.466.893.073.35.047.712-.074 1.048-.112.346-.307.66-.568.912-.212.204-.462.362-.737.467-.304.103-.626.142-.946.115l.392.473zm.865-1.352c.206-.2.363-.446.46-.717.091-.258.11-.536.054-.804-.054-.256-.18-.49-.365-.676-.261-.284-.636-.435-1.02-.413-.867.083-1.563.748-1.684 1.61-.026.393.123.779.405 1.054.181.197.417.336.676.399.252.075.52.075.771 0 .266-.085.508-.233.703-.433v-.02zM78.605 122.995l-.92.595c-.341.237-.703.442-1.081.615-.29.119-.609.143-.913.068-.284-.088-.525-.279-.676-.534-.144-.214-.22-.466-.216-.724.012-.26.099-.511.25-.723.23-.288.51-.533.825-.724l-2.928-.885.568-.372 2.934.892.257-.175-1.264-1.961.46-.297 2.704 4.225zm-.73-.115l-.926-1.433-.798.507c-.239.137-.454.313-.636.52-.11.137-.173.305-.182.48-.006.17.039.337.128.48.092.139.224.245.379.305.157.061.33.073.494.033.258-.083.502-.206.723-.365l.818-.527zM69.749 123.57h-.487c.012-.272.077-.538.19-.785.102-.225.246-.43.425-.601.2-.187.428-.34.676-.453.514-.277 1.123-.32 1.67-.115.475.169.863.522 1.075.98.204.422.24.905.101 1.352-.167.593-.595 1.079-1.162 1.318-.564.294-1.232.314-1.812.055-.423-.197-.76-.54-.947-.967l3.32-1.548c-.168-.365-.479-.644-.859-.771-.38-.128-.797-.099-1.156.081-.187.086-.358.203-.507.345-.139.131-.255.284-.345.453-.09.21-.15.43-.182.656zm.426.912c.145.18.327.324.534.426.201.082.418.12.635.108.235-.006.466-.064.676-.169.342-.149.62-.415.785-.75.125-.282.162-.595.108-.9l-2.738 1.285zM65.314 127.633l-1.089-3.563.494-.149.19.615c.127-.282.314-.533.547-.737.233-.201.508-.349.804-.432.523-.172 1.092-.128 1.582.121.482.227.842.651.987 1.163.154.502.08 1.045-.203 1.488-.27.469-.715.813-1.237.96-.299.096-.616.121-.926.074-.307-.05-.599-.17-.852-.352l.196.676-.493.136zm1.9-.947c.269-.08.515-.223.716-.419.195-.184.335-.418.406-.676.074-.256.074-.528 0-.784-.076-.261-.223-.496-.426-.676-.205-.187-.458-.313-.73-.365-.274-.06-.558-.048-.825.033-.272.082-.52.228-.723.426-.2.182-.343.416-.413.676-.074.259-.074.533 0 .791.108.395.382.723.75.9.386.195.834.229 1.245.094h0zM64.475 129.235L63.962 129.336 62.954 124.286 63.468 124.185zM61.737 125.422L61.21 125.287 61.771 123.894 62.157 123.982zM58.323 129.897h-1.095c-.416.013-.832-.012-1.244-.074-.305-.059-.584-.213-.798-.44-.202-.228-.311-.525-.304-.83 0-.258.075-.51.217-.724.149-.215.362-.378.608-.467.35-.122.719-.177 1.088-.162l-1.974-2.34h.676l1.968 2.34h.31v-2.332h.548v5.03zm-.547-.493v-1.71h-.947c-.276-.012-.552.02-.818.094-.166.055-.31.161-.412.304-.098.136-.15.3-.149.467.003.34.22.643.541.757.261.075.533.107.804.095l.98-.007zM50.596 125.55l-.412-.27c.16-.219.36-.407.588-.554.206-.133.435-.224.676-.27.27-.045.547-.045.818 0 .58.047 1.113.343 1.46.81.304.404.436.913.365 1.413-.069.466-.31.888-.676 1.184-.464.408-1.089.582-1.697.473-.63-.065-1.198-.414-1.541-.947-.259-.4-.356-.883-.27-1.352l3.63.514c.057-.398-.053-.802-.304-1.116-.25-.315-.615-.517-1.014-.56-.204-.038-.412-.038-.616 0-.186.03-.364.093-.527.189-.185.135-.347.3-.48.486h0zm-.142.994c.022.239.096.47.216.676.124.18.286.33.474.44.207.122.437.2.676.23.369.061.747-.01 1.068-.203.254-.166.455-.4.581-.676l-3.015-.467zM44.66 126.565l1.028-3.577.5.142-.176.615c.26-.168.553-.279.859-.324.863-.107 1.71.293 2.177 1.027.28.453.353 1.004.203 1.515-.144.505-.499.924-.974 1.15-.492.25-1.062.298-1.589.134-.3-.085-.58-.235-.818-.44-.229-.208-.407-.467-.52-.756l-.19.676-.5-.162zm2.116.223c.27.084.556.098.832.04.268-.057.515-.185.717-.372.204-.178.35-.413.419-.676.074-.256.074-.528 0-.784-.076-.258-.218-.491-.413-.676-.19-.188-.421-.33-.676-.412-.272-.08-.56-.09-.838-.034-.27.045-.521.167-.723.351-.5.48-.607 1.24-.257 1.84.207.354.544.613.94.723zM43.099 127.464L42.605 127.274 44.471 122.468 44.958 122.657zM39.739 125.875L39.245 125.632 41.476 121.129 41.97 121.372zM37.244 122.576l.453-.108c.08.3.268.56.527.73.137.079.297.108.453.08.142-.014.269-.097.338-.222.062-.114.077-.248.04-.372-.076-.244-.195-.473-.35-.676-.204-.252-.35-.545-.427-.859-.036-.209.002-.424.108-.608.141-.258.389-.441.677-.5.318-.067.65-.009.926.162.2.115.374.27.514.453.133.178.225.383.27.601l-.46.136c-.06-.325-.254-.61-.534-.785-.165-.101-.363-.138-.554-.101-.17.022-.321.119-.413.264-.065.12-.084.259-.054.392.09.244.218.472.379.676.19.24.327.52.399.818.076.489-.24.953-.724 1.061-.286.058-.585.002-.831-.155-.36-.226-.623-.578-.737-.987h0zM33.634 122.258l-.859-.676c-.267-.201-.496-.448-.676-.73-.122-.204-.183-.439-.176-.676.005-.246.09-.484.244-.676.13-.172.31-.302.514-.372.218-.071.451-.083.676-.034-.153-.202-.266-.431-.332-.676-.047-.186-.047-.382 0-.568.034-.187.113-.364.23-.514.246-.312.617-.5 1.014-.513.471-.008.929.158 1.285.466l1.156 1.02-3.076 3.949zm-.122-.717l.967-1.277-.25-.19c-.214-.187-.459-.336-.724-.44-.171-.053-.355-.053-.527 0-.163.044-.308.139-.412.271-.133.168-.178.389-.122.595.11.276.3.512.548.676l.52.365zm1.291-1.676l1.177-1.555-.534-.413c-.23-.195-.49-.35-.771-.46-.183-.053-.378-.053-.561 0-.174.045-.328.144-.44.285-.131.174-.192.391-.169.608.033.253.144.49.318.676.222.25.469.477.737.676l.243.183zM30.26 114.321l-.169-.46c.257-.084.528-.118.798-.101.248.016.491.078.717.183.249.12.477.28.676.473.43.385.677.936.676 1.514.02 1.01-.751 1.858-1.758 1.934-.616.055-1.223-.174-1.65-.622-.466-.429-.714-1.045-.676-1.677.035-.462.234-.896.561-1.224l2.637 2.55c.279-.288.428-.676.413-1.076-.021-.402-.199-.78-.494-1.054-.146-.142-.316-.259-.5-.345-.168-.09-.352-.144-.541-.162-.232-.014-.465.01-.69.067h0zm-.676.717c-.12.206-.192.437-.21.676-.005.216.04.431.13.629.088.222.224.423.398.588.48.518 1.262.62 1.86.243l-2.178-2.136zM26.136 115.491L25.792 115.099 26.839 114.193 26.292 113.564 26.61 113.294 27.15 113.922 29.652 111.766 29.997 112.158 27.495 114.321 27.962 114.862 27.651 115.132 27.177 114.592zM24.453 113.449L24.135 113.037 25.23 112.225 24.723 111.549 25.055 111.299 25.555 111.975 28.185 109.947 28.503 110.359 25.879 112.388 26.312 112.955 25.981 113.206 25.548 112.638zM24.48 106.661l-.06-.486c.27-.018.543.012.804.088.245.07.474.188.676.344.212.172.395.378.54.609.34.472.461 1.068.332 1.636-.11.494-.408.926-.832 1.203-.39.25-.86.349-1.318.277-.614-.087-1.155-.45-1.467-.987-.363-.522-.467-1.182-.284-1.791.13-.437.41-.813.791-1.062l1.974 3.09c.35-.207.596-.554.676-.953.076-.395-.01-.804-.237-1.136-.109-.175-.246-.33-.405-.46-.147-.121-.314-.215-.494-.277-.225-.069-.46-.1-.696-.095h0zm-.845.541c-.158.169-.278.37-.352.588-.045.212-.045.43 0 .643.04.24.127.47.257.676.195.32.497.56.852.676.295.09.61.09.906 0l-1.663-2.583zM21.722 106.817l-.25-.473.48-.257c-.239-.027-.469-.103-.677-.223-.17-.098-.31-.241-.405-.413-.072-.147-.107-.31-.102-.473l.487.054c.006.096.03.19.068.277.093.162.239.289.412.359.217.077.452.09.676.04.414-.124.81-.296 1.183-.514l1.11-.588.256.473-3.238 1.738zM23.29 103.362c-.055-.109-.067-.234-.034-.351.035-.11.113-.2.217-.25.103-.048.221-.048.324 0 .233.088.357.343.284.581-.027.113-.104.207-.21.257-.102.048-.221.048-.324 0-.113-.043-.205-.128-.257-.237h0z" transform="translate(64 8)"/>
            <path fill="#FFF" fill-rule="nonzero" d="M44.525 101.158h.149c.19.182.403.337.635.46.257.13.527.234.805.311l-.19.284-.31-.108v1.19h-.994c.075.105.16.203.257.29.298-.062.585-.17.851-.317l.217.21c-.253.13-.52.227-.798.29.3.125.622.189.947.19l-.109.324c-.39-.033-.77-.145-1.115-.332-.244-.18-.446-.411-.595-.676h-.554v.595c.23-.04.473-.088.723-.155v.318c-.427.108-.86.19-1.298.243l-.04-.338h.297v-1.798l-.345.142-.149-.298c.314-.095.616-.226.9-.392.194-.126.375-.27.54-.433h.176zm-.798.839h.676c-.037-.09-.08-.179-.128-.264l.304-.04c.04.087.081.195.122.304h.635c-.3-.15-.58-.339-.831-.562-.19.168-.394.319-.609.453-.053.04-.11.077-.169.109zm0 .507h1.569v-.223h-1.548l-.02.223zm0 .507h1.569v-.25h-1.548l-.02.25zM46.648 101.408h.264c0 .15 0 .291-.034.433h.21v-.723h.317v.723h.311v.244c.076-.112.144-.23.203-.352.083-.197.14-.404.169-.615l.318.054c-.025.134-.056.268-.095.399h1.23c0 1.23 0 1.96-.047 2.19-.006.13-.062.254-.155.345-.142.087-.308.125-.474.108h-.27l-.054-.345c.108.007.216.007.324 0 .18 0 .282-.074.305-.223.06-.6.082-1.202.067-1.805h-.088c-.053.466-.174.921-.358 1.352-.19.372-.464.696-.798.947l-.21-.27c.298-.226.545-.512.724-.839.174-.372.288-.769.338-1.176h-.169c-.064.263-.155.519-.27.764-.148.296-.345.566-.582.797l-.216-.263c.204-.186.377-.403.514-.643.111-.212.191-.44.236-.676h-.155c-.091.245-.221.474-.386.676l-.23-.277.075-.094h-.27v.676l.324-.122v.304l-.324.122v1.136h-.318v-1.021l-.534.162-.081-.345c.207-.034.412-.08.615-.135v-.77h-.25c0 .182-.061.35-.095.506l-.311-.094c.116-.375.193-.76.23-1.15zM49.974 101.327h3.096v.311h-.493v2.265c.01.102-.024.203-.095.277-.086.068-.195.1-.304.088h-.52l-.082-.365h.507c.136 0 .15 0 .15-.074v-2.218h-2.259v-.284zm.345.764h1.352v1.42h-1.352v-1.42zm1.061 1.123v-.825h-.723v.825h.723zM53.915 101.199h.345v2.143c.237-.095.48-.196.724-.318l.074.318c-.462.252-.952.45-1.46.588l-.149-.331c.156-.04.304-.081.466-.135v-2.265zm1.826 0h.372c.009.573-.064 1.144-.217 1.697.248.313.474.643.676.987l-.284.277c-.157-.313-.345-.61-.56-.886-.25.42-.604.767-1.028 1.008l-.237-.298c.402-.196.74-.504.974-.885.241-.603.345-1.252.304-1.9zm-.92.318c.23.365.406.676.534.933l-.33.23c-.142-.338-.303-.668-.48-.988l.276-.175zM57.012 101.327h1.203v1.068c.117-.166.214-.345.29-.534.092-.217.16-.444.204-.676l.345.04c-.028.154-.064.305-.109.454h1.136v.318h-.284c-.002.488-.13.968-.372 1.392-.015.029-.033.056-.054.081.205.211.431.4.676.562l-.169.304c-.273-.164-.52-.369-.73-.609-.237.242-.508.447-.804.609l-.19-.29c.297-.143.567-.335.798-.569-.18-.309-.313-.644-.392-.994-.058.092-.12.18-.19.264l-.175-.216v.162h-.73v1.034c.296-.123.583-.268.858-.432v.338c-.409.248-.839.46-1.284.635l-.088-.331.21-.081v-1.46h.75v-.744h-.9v-.325zm1.805.758c.064.391.197.77.392 1.115.203-.376.312-.796.318-1.224h-.71v.109zM61.393 102.53c.045.14.081.282.108.427l-.129.033.156.075-.061.094h1.9v.278h-.413c-.139.18-.308.336-.5.46.383.058.769.092 1.156.1l-.108.312c-.478-.03-.952-.109-1.413-.237-.468.16-.96.24-1.454.237l-.175-.27c.437.014.875-.023 1.305-.109-.211-.12-.405-.267-.575-.44l-.047.048c-.151.118-.323.205-.508.257l-.162-.237c.169-.048.329-.123.473-.223.127-.094.236-.208.325-.338 0-.128-.047-.25-.074-.372l.196-.094zm-.453-1.351l.243.094c-.072.16-.155.313-.25.46h.203l.142-.21.21.109c-.136.217-.29.423-.46.615l.243-.04c0-.055 0-.109-.047-.163l.196-.054c.056.147.1.299.135.453l-.216.054v-.102c-.247.057-.498.09-.75.102l-.068-.223h.182c.095-.095.19-.196.284-.311h-.385l-.054-.23h.135c.1-.175.186-.358.257-.548v-.006zm-.332 1.352l.217.054c-.018.167-.05.332-.095.493l-.23-.08c.054-.147.09-.299.108-.454v-.013zm.507 0v.453h-.25v-.467l.25.014zm.345.838c.188.158.404.28.636.358.188-.086.358-.208.5-.358H61.46zm.615-2.251c0 .067.061.142.088.223h.365v.216h-1.007v-.149h.385l-.087-.182.256-.108zm-.507.56h.866v.197h-.866v-.196zm0 .319h.852v.202h-.838l-.014-.202zm0 .33h.866v.569c.067-.137.113-.283.135-.433l.23.054c-.034.184-.088.363-.162.534l-.244-.08v-.041h-.811l-.014-.602zm.63.434v-.196h-.36v.196h.36zm.675-1.61l.237.095c-.076.154-.164.3-.264.44h.264c.053-.063.103-.128.149-.196l.21.108c-.156.224-.33.434-.521.628l.324-.04c-.02-.06-.042-.118-.067-.176l.196-.054c.07.146.128.298.175.453l-.216.054v-.088c-.28.049-.562.078-.845.088l-.068-.223h.183c.108-.101.216-.216.324-.338-.121 0-.263 0-.44.04v-.223h.116c.099-.178.18-.366.243-.56v-.007zm.223 1.353c.024.154.038.31.04.466h-.256v-.48l.216.014zm.291-.054c.071.15.13.306.176.466l-.244.054c-.036-.154-.083-.306-.142-.453l.21-.067zM63.962 101.956h.344v-.615h.352v.615h.487v-.757h.338v.757h.676v-.757h.338v.757h.561v.311h-.561v1.17h-1.352v-1.183h-.487v1.575h2.346v.304h-2.346v.162h-.352v-2.028h-.344v-.31zm1.52.311v.879h.677v-.879h-.676zM67.808 101.266h2.455v1.495h-.595c.093.089.198.166.31.23.202.11.415.199.636.263l-.135.29c-.278-.093-.544-.22-.791-.378v1.143h-.318v-1.244h.183c-.105-.093-.203-.195-.291-.304h-.52c-.084.115-.184.218-.298.304h.23c.01.274-.063.545-.21.777-.2.224-.46.386-.75.467l-.217-.27c.248-.047.48-.153.677-.312.145-.166.225-.38.223-.601-.237.162-.494.294-.764.392l-.176-.277c.236-.075.463-.177.676-.305.08-.053.157-.111.23-.175h-.528l-.027-1.495zm.305.616h.75v-.338h-.75v.338zm.75.581v-.318h-.75v.318h.75zm.304-.581h.791v-.338h-.79v.338zm.791.581v-.318h-.79v.318h.79zM104.187 55.842C99.725 27.603 79.633 7.105 56.41 7.105c-23.222 0-43.308 20.498-47.77 48.737l-.595-.094C12.561 27.21 32.897 6.504 56.41 6.504s43.856 20.707 48.379 49.244l-.602.094z" transform="translate(64 8)"/>
            <path fill="#FFF" fill-rule="nonzero" d="M89.3 55.849c-3.853-20.018-17.374-34.012-32.89-34.012-15.515 0-29.036 13.994-32.883 34.012l-.588-.115C26.846 35.452 40.61 21.255 56.41 21.255c15.8 0 29.57 14.197 33.478 34.48l-.588.114z" transform="translate(64 8)"/>
            <path fill="#4B7923" d="M57.715 51.55c.554-.095.933-.176 1.352-.217 2.821-.269 5.468-1.484 7.511-3.448 4.056-3.874 5.287-8.626 3.948-14.062-.318-1.311-.345-1.352-1.697-1.298-.37.026-.738.076-1.102.149-3.598.496-6.833 2.452-8.944 5.408-2.063 2.767-3.016 6.207-2.67 9.64.127.913.312 1.816.554 2.705 1.771-3.712 5.55-8.789 7.673-10.276-2.831 3.402-5.07 7.255-6.625 11.398zm-2.116-2.935c-.077-1.33-.065-2.666.034-3.995.293-1.35-.057-2.758-.947-3.813-2.062-2.5-5.136-3.944-8.376-3.935-1.515 4.171-.926 7.876 2.028 11.25 1.88 2.102 4.55 3.327 7.369 3.38-1.171-3.211-2.907-6.187-5.124-8.789l.25-.176 4.766 6.078z" transform="translate(64 8)"/>
            <path fill="#4B7923" d="M57.715 51.55c1.551-4.156 3.79-8.021 6.625-11.433-2.123 1.474-5.902 6.565-7.673 10.276-.242-.889-.427-1.792-.554-2.704-.36-3.44.583-6.89 2.643-9.668 2.111-2.955 5.346-4.912 8.944-5.408.364-.073.732-.123 1.102-.149 1.352 0 1.352 0 1.697 1.298 1.352 5.409.122 10.188-3.948 14.062-2.043 1.964-4.69 3.18-7.511 3.448-.392.108-.77.183-1.325.277zM55.599 48.615l-4.773-6.084-.25.175c2.217 2.602 3.953 5.578 5.124 8.79-2.82-.054-5.49-1.279-7.369-3.381-2.947-3.38-3.536-7.078-2.028-11.25 3.244-.004 6.319 1.448 8.376 3.955.889 1.051 1.24 2.454.954 3.8-.1 1.33-.11 2.664-.034 3.995z" transform="translate(64 8)"/>
            <path fill="#FFF" fill-rule="nonzero" stroke="#FFF" stroke-width=".541" d="M19.795 38.021L20.092 37.345 22.918 36.845 21.431 34.411 21.735 33.735 23.621 36.805 26.109 37.94 25.852 38.508 23.358 37.372zM24.284 32.174c.327-.588.883-1.013 1.535-1.177.563-.15 1.163-.06 1.658.247.495.307.842.805.958 1.376.224 1.32-.553 2.605-1.825 3.022-.567.167-1.178.089-1.684-.217-.496-.296-.847-.786-.967-1.352-.158-.65-.04-1.338.325-1.9zm.453.277c-.254.402-.339.888-.237 1.352.08.456.357.855.757 1.088.258.159.556.241.86.237.307-.007.608-.096.871-.257.276-.168.508-.4.676-.676.164-.276.264-.586.29-.906.01-.292-.058-.58-.195-.838-.134-.277-.342-.511-.602-.676-.405-.251-.9-.31-1.352-.163-.45.133-.832.433-1.068.839zM26.366 29.131l.386-.466 1.527 1.25c.249.224.526.413.825.562.255.098.537.098.791 0 .288-.1.54-.284.724-.528.198-.227.33-.506.378-.804.038-.257-.012-.519-.142-.744-.213-.26-.461-.49-.737-.683l-1.528-1.257.386-.473 1.609 1.311c.365.269.665.615.879 1.014.131.305.167.642.101.967-.082.387-.264.746-.527 1.041-.239.319-.555.57-.92.73-.314.116-.656.133-.98.048-.44-.138-.846-.368-1.19-.676l-1.582-1.292zM33.012 20.282l5.848 2.704-.541.42-1.947-.88-2.157 1.677.372 2.096-.561.432-1.136-6.361.122-.088zm.676 1.014l.406 2.298 1.717-1.352-2.123-.946zM37.028 19.295l.534-.311.31.534c.024-.27.1-.531.224-.771.189-.377.572-.616.994-.622v.554c-.11.014-.218.046-.318.095-.183.114-.32.289-.386.494-.083.264-.083.547 0 .81.16.465.375.908.643 1.32l.723 1.236-.534.311-2.19-3.65zM44.343 18.801h.56c-.024.308-.107.608-.243.886-.127.255-.301.485-.514.676-.232.211-.5.38-.79.5-.598.303-1.295.34-1.92.102-.54-.21-.974-.622-1.21-1.15-.212-.485-.236-1.032-.068-1.534.214-.678.723-1.223 1.386-1.481.66-.314 1.428-.314 2.089 0 .478.228.854.625 1.054 1.115l-3.873 1.69c.177.423.526.75.96.9.44.162.929.137 1.352-.068.217-.093.418-.22.595-.378.165-.144.305-.316.412-.507.106-.24.176-.492.21-.75zm-.453-1.048c-.301-.447-.814-.703-1.353-.676-.274.008-.545.067-.797.176-.399.164-.727.463-.926.845-.154.317-.208.673-.156 1.02l3.232-1.365zM47.128 13.285L47.804 13.197 49.643 17.104 50.894 12.777 51.022 12.777 53.361 16.617 54.085 12.338 54.761 12.25 53.726 18.166 53.611 18.166 51.157 14.109 49.805 18.659 49.69 18.659zM56.505 12.23l.601.04-.162 2.387c.24-.256.53-.459.852-.595.306-.125.637-.176.967-.149.326.017.642.122.912.304.252.162.446.398.555.677.128.415.165.853.108 1.284l-.169 2.184-.602-.04.136-2.029c.03-.326.03-.654 0-.98-.034-.263-.164-.504-.366-.676-.217-.167-.483-.26-.757-.264-.355-.029-.71.062-1.007.257-.287.181-.506.452-.622.77-.104.384-.158.78-.162 1.177l-.108 1.548-.568-.04.392-5.855zM66.571 15.42l-.994 4.125-.58-.135.168-.71c-.292.204-.624.344-.973.412-.986.172-1.983-.238-2.563-1.055-.35-.493-.469-1.115-.324-1.703.134-.585.52-1.08 1.054-1.352.564-.33 1.236-.42 1.866-.25.355.077.688.234.974.46.288.219.52.504.676.83l.176-.756.52.135zm-2.447-.148c-.315-.077-.645-.077-.96 0-.304.076-.582.232-.805.453-.215.213-.367.483-.439.778-.068.296-.052.605.047.892.102.298.282.564.52.77.242.214.532.363.846.433.318.075.649.075.967 0 .303-.07.581-.222.804-.44.217-.216.368-.49.433-.79.118-.454.029-.937-.243-1.318-.276-.4-.695-.678-1.17-.778zM69.019 14.657L69.586 14.866 69.039 16.34 69.938 16.672 69.776 17.111 68.877 16.78 67.606 20.282 67.038 20.072 68.282 16.57 67.504 16.286 67.673 15.84 68.444 16.131zM73.433 16.577L74.069 16.942 74.299 19.802 76.861 18.551 77.496 18.916 74.265 20.505 72.913 22.871 72.372 22.56 73.724 20.194zM78.835 21.634c.549.385.915.98 1.014 1.643.086.57-.064 1.15-.417 1.605-.352.456-.876.748-1.449.808-1.336.096-2.541-.801-2.833-2.11-.107-.572.027-1.163.37-1.634.343-.47.865-.78 1.442-.853.672-.084 1.35.111 1.873.54h0zm-.325.426c-.383-.299-.87-.432-1.352-.372-.764.086-1.365.694-1.44 1.46-.025.307.033.616.17.893.142.285.35.533.608.723.254.197.554.327.872.379.302.056.614.025.899-.088.283-.11.529-.298.71-.541.284-.369.39-.844.29-1.298-.086-.477-.359-.9-.757-1.177v.02zM81.64 23.98l.433.426-1.386 1.406c-.246.227-.46.486-.635.77-.122.246-.15.527-.081.792.078.294.238.561.46.77.208.218.476.371.77.44.25.064.516.04.75-.068.295-.187.56-.415.792-.676l1.352-1.413.44.433-1.454 1.48c-.3.34-.672.608-1.089.785-.317.098-.656.098-.973 0-.755-.27-1.352-.858-1.63-1.61-.101-.318-.101-.66 0-.98.177-.426.445-.81.785-1.122l1.467-1.433zM88.313 29.016L90.436 31.971 89.983 32.295 88.232 29.855 86.772 30.903 88.509 33.323 88.056 33.647 86.319 31.227 84.507 32.539 86.238 34.959 85.785 35.283 83.675 32.349zM92.086 37.893l-3.712 2.028-.284-.527.636-.345c-.347-.086-.673-.24-.96-.453-.28-.216-.511-.49-.676-.804-.316-.547-.406-1.194-.25-1.806.139-.582.523-1.075 1.054-1.352.525-.295 1.154-.342 1.717-.128.601.205 1.1.633 1.393 1.197.176.313.28.662.304 1.02.02.357-.045.714-.19 1.042l.677-.372.29.5zm-1.494-1.92c-.167-.287-.398-.53-.677-.71-.26-.175-.564-.276-.878-.29-.303-.024-.605.04-.872.182-.263.153-.48.372-.63.635-.153.278-.232.59-.23.906.008.322.091.637.244.92.168.287.4.532.676.716.257.177.555.282.866.305.793.033 1.502-.494 1.697-1.265.117-.474.046-.975-.196-1.399h0zM94.296 39.09L94.533 39.651 93.086 40.259 93.458 41.145 93.025 41.327 92.654 40.442 89.185 41.915 88.949 41.361 92.417 39.887 92.092 39.13 92.525 38.948 92.85 39.705z" transform="translate(64 8)"/>
            <path fill="#FFF" fill-rule="nonzero" d="M29.314 57.269L29.314 76.34 21.688 76.34 21.688 57.269 14.055 57.269 14.055 49.636 36.946 49.636 36.946 57.269zM49.082 55.437c2.723-.001 5.178 1.642 6.215 4.161 1.038 2.519.452 5.414-1.483 7.332-.55.551-1.187 1.008-1.886 1.352l8.113 8.112h-8.465l-7.72-7.774v7.72h-5.997V55.437h11.223zm-5.226 5.976v1.46h5.226c.199.004.39-.073.532-.213.141-.14.22-.331.218-.53.004-.2-.074-.394-.216-.535-.141-.142-.334-.22-.534-.216l-5.226.034z" transform="translate(64 8)"/>
            <path fill="#FFF" fill-rule="nonzero" d="M57.303 55.437h5.976v11.195c-.059 1.372.64 2.666 1.82 3.37 1.18.704 2.65.704 3.83 0 1.18-.704 1.879-1.998 1.82-3.37V55.437h5.977v11.195c-.008 3.92-2.371 7.45-5.992 8.95-3.62 1.5-7.787.677-10.565-2.088-1.857-1.795-2.887-4.28-2.846-6.862l-.02-11.195zM96.142 55.437L96.142 61.413 84.196 61.413 84.196 62.873 93.154 62.873 93.154 68.85 84.196 68.85 84.196 70.344 96.142 70.344 96.142 76.32 78.22 76.32 78.22 55.437zM36.426 79.099L36.426 84.297 26.028 84.297 26.028 85.595 36.426 85.595 36.426 90.794 26.028 90.794 26.028 97.291 20.829 97.291 20.829 79.099zM46.824 97.305c-4.115-.005-7.715-2.77-8.78-6.744-1.065-3.975.67-8.17 4.23-10.231 3.561-2.062 8.063-1.477 10.979 1.425 2.613 2.6 3.398 6.52 1.99 9.927-1.409 3.407-4.733 5.627-8.42 5.623zm0-5.2c1.86 0 3.462-1.314 3.826-3.139.363-1.825-.614-3.653-2.334-4.365-1.719-.712-3.702-.11-4.736 1.437-1.034 1.547-.83 3.61.485 4.925.722.746 1.72 1.16 2.759 1.143zM66.314 97.305c-4.337-.003-8.069-3.069-8.913-7.323-.844-4.255 1.434-8.513 5.442-10.172 4.008-1.659 8.63-.256 11.038 3.35 2.41 3.608 1.936 8.414-1.13 11.481-1.684 1.742-4.015 2.707-6.437 2.664zm0-5.2c1.868 0 3.475-1.32 3.839-3.152.363-1.832-.619-3.666-2.345-4.38-1.726-.712-3.716-.107-4.752 1.448-1.036 1.554-.83 3.623.493 4.942.724.747 1.725 1.161 2.765 1.143zM84.507 79.099c3.309-.09 6.406 1.623 8.087 4.475 1.681 2.851 1.681 6.39 0 9.242-1.681 2.852-4.778 4.565-8.087 4.475h-7.795V79.1h7.795zm0 12.993c1.431.06 2.78-.67 3.513-1.9.734-1.23.734-2.764 0-3.994-.733-1.23-2.082-1.96-3.513-1.9h-2.596v7.794h2.596z" transform="translate(64 8)"/>
        </g>
    </g>
</svg>
