<svg xmlns="http://www.w3.org/2000/svg" width="16" height="16" viewBox="0 0 16 16">
    <g fill="none" fill-rule="evenodd">
        <g fill="#595351">
            <path d="M8 1C4.693 1 2 3.67 2 6.95c0 1.472.545 2.823 1.44 3.86l.002.004.002.002s2.553 2.889 3.461 3.749c.609.575 1.58.575 2.189 0 1.036-.98 3.463-3.75 3.463-3.75v-.002l.003-.002C13.455 9.773 14 8.422 14 6.95 14 3.67 11.307 1 8 1zm0 1.05c2.735 0 4.941 2.188 4.941 4.9 0 1.216-.447 2.321-1.186 3.179-.005.005-2.488 2.821-3.392 3.676-.21.198-.517.198-.727 0-.755-.715-3.384-3.668-3.392-3.676v-.001c-.739-.857-1.185-1.962-1.185-3.178 0-2.712 2.206-4.9 4.941-4.9zm0 2.8c-.662 0-1.225.265-1.587.669-.362.403-.53.92-.53 1.431 0 .51.168 1.028.53 1.431.362.404.925.669 1.587.669.662 0 1.225-.265 1.587-.669.362-.403.53-.92.53-1.431 0-.51-.168-1.028-.53-1.431C9.225 5.115 8.662 4.85 8 4.85zM8 5.9c.397 0 .628.129.795.316.168.187.264.457.264.734 0 .277-.096.547-.264.734C8.628 7.871 8.397 8 8 8s-.628-.129-.795-.316c-.168-.187-.264-.457-.264-.734 0-.277.096-.547.264-.734.167-.187.398-.316.795-.316z"/>
        </g>
    </g>
</svg>
