<svg xmlns="http://www.w3.org/2000/svg" width="24" height="24" viewBox="0 0 24 24">
    <g fill="none" fill-rule="evenodd">
        <g fill="#FFF" fill-rule="nonzero">
            <g>
                <g>
                    <path d="M18 7.667c0 .304-.115.609-.342.84l-.1.103c-.452.465-1.186.465-1.638 0l-2.762-2.845v15.546c0 .656-.52 1.189-1.159 1.189-.64 0-1.159-.533-1.159-1.19V5.766L8.078 8.61c-.453.465-1.187.465-1.639 0l-.1-.102c-.452-.465-.452-1.218 0-1.682l4.84-4.977c.454-.465 1.187-.465 1.64 0l4.84 4.977c.226.233.341.537.341.841z" transform="translate(-1200 -3140) translate(1184 3124) translate(16 16)"/>
                </g>
            </g>
        </g>
    </g>
</svg>
