<svg xmlns="http://www.w3.org/2000/svg" width="16" height="16" viewBox="0 0 16 16">
    <g fill="none" fill-rule="evenodd">
        <g fill="#7d7775" fill-rule="nonzero">
            <path d="M5.111 4c.203 0 .406.077.561.228l.068.066c.31.302.31.791 0 1.093L3.844 7.228h10.363c.438 0 .793.346.793.773 0 .426-.355.772-.793.772H3.844l1.896 1.842c.31.302.31.79 0 1.092l-.068.066c-.31.303-.812.303-1.121 0L1.233 8.547c-.31-.302-.31-.791 0-1.093L4.55 4.228c.155-.151.357-.228.56-.228z"/>
        </g>
    </g>
</svg>
