<svg xmlns="http://www.w3.org/2000/svg" width="16" height="16" viewBox="0 0 16 16">
    <g fill="none" fill-rule="evenodd">
        <g fill="#7d7775" fill-rule="nonzero">
            <path d="M10.889 4c-.203 0-.406.077-.561.228l-.068.066c-.31.302-.31.791 0 1.093l1.896 1.841H1.793c-.438 0-.793.346-.793.773 0 .426.355.772.793.772h10.363l-1.896 1.842c-.31.302-.31.79 0 1.092l.068.066c.31.303.812.303 1.121 0l3.318-3.226c.31-.302.31-.791 0-1.093L11.45 4.228c-.155-.151-.357-.228-.56-.228z"/>
        </g>
    </g>
</svg>
