<svg xmlns="http://www.w3.org/2000/svg" width="24" height="24" viewBox="0 0 24 24">
    <g fill="none" fill-rule="evenodd">
        <g fill="#FFF" fill-rule="nonzero">
            <g>
                <path d="M4.29 3c-.523 0-.993.317-1.19.8-.196.485-.08 1.04.295 1.403l6.79 6.791-6.79 6.792c-.336.321-.47.8-.353 1.249.117.45.468.8.918.918.45.117.927-.018 1.249-.353L12 13.809l6.791 6.79c.322.336.8.471 1.25.354.45-.117.8-.468.917-.918.118-.45-.017-.928-.353-1.25l-6.79-6.79 6.79-6.792c.38-.369.494-.933.288-1.42-.206-.487-.69-.798-1.22-.782-.333.01-.65.149-.882.388L12 10.18 5.209 3.39c-.242-.248-.573-.388-.92-.388z" transform="translate(-335 -20) translate(335 20)"/>
            </g>
        </g>
    </g>
</svg>
