<svg xmlns="http://www.w3.org/2000/svg" width="16" height="16" viewBox="0 0 16 16">
    <g fill="none" fill-rule="evenodd">
        <g fill="#FFF" fill-rule="nonzero">
            <g>
                <g>
                    <g>
                        <g>
                            <path d="M8.879 1H3.5C2.675 1 2 1.63 2 2.4v11.2c0 .77.675 1.4 1.5 1.4h9c.825 0 1.5-.63 1.5-1.4V5.78c0-.371-.158-.728-.44-.99L9.94 1.41C9.658 1.148 9.277 1 8.879 1zm-.504 11.9h-3c-.207 0-.375-.157-.375-.35v-.7c0-.193.168-.35.375-.35h3c.207 0 .375.157.375.35v.7c0 .193-.168.35-.375.35zm2.25-2.1h-5.25c-.207 0-.375-.157-.375-.35v-.7c0-.193.168-.35.375-.35h5.25c.207 0 .375.157.375.35v.7c0 .193-.168.35-.375.35zm0-2.1h-5.25C5.168 8.7 5 8.543 5 8.35v-.7c0-.193.168-.35.375-.35h5.25c.207 0 .375.157.375.35v.7c0 .193-.168.35-.375.35zM8.75 5.9V2.05l4.125 3.85H8.75z" transform="translate(-692 -3182) translate(0 2538) translate(560 632) translate(120) translate(12 12)"/>
                        </g>
                    </g>
                </g>
            </g>
        </g>
    </g>
</svg>
