<svg xmlns="http://www.w3.org/2000/svg" width="16" height="16" viewBox="0 0 16 16">
    <g fill="none" fill-rule="evenodd">
        <g fill="#7d7775">
            <path d="M3.528 1C2.138 1 1 2.139 1 3.528v8.944C1 13.862 2.139 15 3.528 15h8.944C13.862 15 15 13.861 15 12.472V3.528C15 2.138 13.861 1 12.472 1H3.528zm0 1.167h8.944c.759 0 1.361.602 1.361 1.36v.584H2.167v-.583c0-.759.602-1.361 1.36-1.361zm-1.361 3.11h11.666v7.195c0 .759-.602 1.361-1.36 1.361H3.527c-.759 0-1.361-.602-1.361-1.36V5.277zm2.527 1.556c-.536 0-.972.436-.972.973 0 .536.436.972.972.972.537 0 .973-.436.973-.972 0-.537-.436-.973-.973-.973zm3.306 0c-.537 0-.972.436-.972.973 0 .536.435.972.972.972.537 0 .972-.436.972-.972 0-.537-.435-.973-.972-.973zm3.306 0c-.537 0-.973.436-.973.973 0 .536.436.972.973.972.536 0 .972-.436.972-.972 0-.537-.436-.973-.972-.973zm-6.612 3.5c-.536 0-.972.436-.972.973 0 .536.436.972.972.972.537 0 .973-.436.973-.972 0-.537-.436-.973-.973-.973zm3.306 0c-.537 0-.972.436-.972.973 0 .536.435.972.972.972.537 0 .972-.436.972-.972 0-.537-.435-.973-.972-.973z"/>
        </g>
    </g>
</svg>
