<svg xmlns="http://www.w3.org/2000/svg" width="112" height="25" viewBox="0 0 112 25">
    <g fill="none" fill-rule="evenodd">
        <g fill="#D70F64" fill-rule="nonzero">
            <g>
                <g>
                    <g>
                        <g>
                            <g>
                                <g>
                                    <path d="M0 4.578h1.568V3.073c0-1.819 1.003-3.01 3.01-3.01L5.58.25v1.818l-1.066-.188c-.627 0-.878.377-.878 1.004v1.693h2.007v1.818H3.637v7.525H1.63V6.396H0V4.578zM10.723 4.39c2.571 0 4.891 2.006 4.891 4.89 0 2.885-2.257 4.892-4.89 4.892-2.635 0-4.892-2.007-4.892-4.891 0-2.947 2.32-4.891 4.891-4.891zm0 7.964c1.881 0 2.885-1.38 2.885-3.073s-1.004-3.073-2.885-3.073c-1.881 0-2.884 1.38-2.884 3.073 0 1.63 1.003 3.073 2.884 3.073zM21.32 4.39c2.572 0 4.892 2.006 4.892 4.89 0 2.885-2.257 4.892-4.891 4.892s-4.891-2.007-4.891-4.891c.062-2.947 2.32-4.891 4.89-4.891zm0 7.964c1.882 0 2.886-1.38 2.886-3.073s-1.004-3.073-2.885-3.073c-1.881 0-2.885 1.38-2.885 3.073 0 1.63 1.004 3.073 2.885 3.073zM36.622 13.921h-1.819l-.188-.815-.125-.125-.126.125c-.627.627-1.567 1.003-2.57 1.003-2.572 0-4.767-2.006-4.767-4.89 0-2.885 2.195-4.892 4.766-4.892 1.004 0 2.007.376 2.571 1.003l.126.126.125-.126V.125h2.007v13.796zm-4.703-7.776c-1.882 0-2.885 1.38-2.885 3.073s1.003 3.073 2.885 3.073c1.693 0 2.884-1.38 2.884-3.073 0-1.63-1.191-3.073-2.884-3.073zM38.629 4.578h1.818l.188.815.126.125.125-.125c.627-.627 1.568-1.003 2.571-1.003 2.571 0 4.766 2.006 4.766 4.89 0 2.885-2.195 4.892-4.766 4.892-1.003 0-2.007-.376-2.571-1.003l-.125-.126-.126.126v5.017h-1.944V4.578h-.062zm4.64 7.776c1.881 0 2.885-1.38 2.885-3.073s-1.004-3.073-2.885-3.073c-1.693 0-2.885 1.38-2.885 3.073 0 1.63 1.192 3.073 2.885 3.073zM53.177 8.09h1.63v-.44c0-1.128-.752-1.63-1.818-1.63-.878 0-1.442.439-1.756 1.254l-1.756-.376c.376-1.568 1.756-2.571 3.575-2.571 2.508 0 3.762 1.254 3.762 3.7v5.832h-1.63l-.189-1.255c-.627.941-1.63 1.38-2.947 1.38-1.693 0-2.884-1.003-2.884-2.885-.063-1.818 1.567-3.01 4.013-3.01zm-.878 4.264c.627 0 1.254-.189 1.693-.627.502-.44.753-1.004.753-1.756v-.188h-1.693c-1.192 0-1.944.564-1.944 1.442 0 .627.439 1.129 1.191 1.129zM58.57 4.578h1.818l.189.815.125.125.125-.125c.377-.627 1.38-1.003 2.195-1.003 2.383 0 3.763 1.567 3.763 3.762v5.77h-2.007v-5.77c-.063-1.254-.69-2.007-2.007-2.007-1.191 0-2.132.941-2.194 2.133v5.643H58.57V4.578zM77.508 13.921h-1.819l-.188-.815-.125-.125-.126.125c-.627.627-1.567 1.003-2.57 1.003-2.572 0-4.767-2.006-4.767-4.89 0-2.885 2.195-4.892 4.766-4.892 1.004 0 2.007.376 2.571 1.003l.126.126.125-.126V.125h2.007v13.796zm-4.64-7.776c-1.882 0-2.885 1.38-2.885 3.073s1.003 3.073 2.884 3.073c1.694 0 2.885-1.38 2.885-3.073 0-1.63-1.191-3.073-2.885-3.073zM83.214 8.09h1.63v-.44c0-1.128-.752-1.63-1.818-1.63-.878 0-1.442.439-1.756 1.254l-1.755-.376c.376-1.568 1.755-2.571 3.574-2.571 2.508 0 3.762 1.254 3.762 3.7v5.832h-1.63l-.188-1.255c-.627.941-1.63 1.38-2.947 1.38-1.693 0-2.885-1.003-2.885-2.885-.063-1.818 1.505-3.01 4.013-3.01zm-.878 4.264c.628 0 1.255-.189 1.694-.627.501-.44.752-1.004.752-1.756v-.188H83.09c-1.191 0-1.944.564-1.944 1.442 0 .627.439 1.129 1.191 1.129z" transform="translate(-980 -575) translate(160 400) translate(796 108) translate(0 56) translate(24 12) translate(1 2) translate(22.507 1.69)"/>
                                </g>
                                <g>
                                    <path d="M8.598 12.619c1.129 0 2.07-.816 2.07-1.819h-4.14c0 1.003.879 1.819 2.07 1.819z" transform="translate(-980 -575) translate(160 400) translate(796 108) translate(0 56) translate(24 12) translate(1 2) translate(.05 .045)"/>
                                    <g>
                                        <path d="M15.559 3.965c.501-.376.752-1.004.752-1.693 0-1.255-1.003-2.195-2.257-2.195-.815 0-1.505.376-1.881 1.003C11.043.516 9.79.265 8.535.265c-1.316 0-2.57.314-3.637.815C4.522.453 3.832.077 3.018.077 1.762.077.76 1.08.76 2.272c0 .69.313 1.254.752 1.693C.572 5.345.07 6.912.07 8.668c0 4.64 3.762 8.466 8.465 8.466 4.64 0 8.466-3.763 8.466-8.466 0-1.756-.502-3.386-1.442-4.703zm-6.96 12.479c-4.265 0-7.777-3.512-7.777-7.776 0-1.63.502-3.135 1.317-4.39.753-1.128 1.819-2.069 3.073-2.633C6.215 1.143 7.407.892 8.598.892c1.192 0 2.383.25 3.386.753 1.255.627 2.258 1.505 3.073 2.633.815 1.255 1.317 2.76 1.317 4.39 0 4.264-3.512 7.776-7.776 7.776z" transform="translate(-980 -575) translate(160 400) translate(796 108) translate(0 56) translate(24 12) translate(1 2) translate(.05 .045)"/>
                                        <path d="M8.598 10.298c.126.063 1.442-.439 1.442-1.066 0-.376-1.066-.439-1.442-.439-.376 0-1.442.063-1.442.44-.063.626 1.317 1.128 1.442 1.065zM13.49 5.03c-.753-.5-2.383-.752-3.01.064 0 0-.816.877 0 1.755.815.878 1.379 1.756 1.567 2.446.188.753.502 1.003 1.066 1.003.565 0 1.693-.878 1.881-2.32.126-1.442-.752-2.508-1.505-2.947zm-1.694 1.82c-.25 0-.439-.189-.439-.44 0-.25.188-.439.44-.439.25 0 .438.189.438.44 0 .25-.188.438-.439.438zM6.654 5.094c-.627-.816-2.257-.565-3.01-.063-.752.502-1.63 1.505-1.505 2.947.126 1.442 1.254 2.32 1.881 2.32.565 0 .878-.313 1.066-1.003.189-.752.816-1.568 1.568-2.446.815-.94 0-1.755 0-1.755zM5.463 6.849c-.251 0-.44-.188-.44-.439 0-.25.189-.439.44-.439.25 0 .439.189.439.44 0 .25-.188.438-.44.438z" transform="translate(-980 -575) translate(160 400) translate(796 108) translate(0 56) translate(24 12) translate(1 2) translate(.05 .045)"/>
                                    </g>
                                </g>
                            </g>
                        </g>
                    </g>
                </g>
            </g>
        </g>
    </g>
</svg>
