<svg xmlns="http://www.w3.org/2000/svg" width="20" height="20" viewBox="0 0 20 20">
    <g fill="none" fill-rule="evenodd">
        <g fill="#FFF" fill-rule="nonzero">
            <g>
                <g>
                    <g>
                        <g>
                            <path d="M13.61 5c-.253 0-.507.096-.7.285l-.085.083c-.388.377-.388.989 0 1.365l2.37 2.302H2.242c-.547 0-.991.433-.991.966 0 .533.444.965.991.965h12.955l-2.371 2.302c-.388.378-.388.99 0 1.366l.085.083c.388.377 1.015.377 1.402 0l4.147-4.033c.388-.378.388-.99 0-1.366l-4.147-4.033C14.118 5.096 13.864 5 13.61 5z" transform="translate(-630 -2878) translate(0 2654) translate(328 64) translate(212) translate(90 160)"/>
                        </g>
                    </g>
                </g>
            </g>
        </g>
    </g>
</svg>
