<svg xmlns="http://www.w3.org/2000/svg" width="16" height="16" viewBox="0 0 16 16">
    <g fill="none" fill-rule="evenodd">
        <g fill="#FFF" fill-rule="nonzero">
            <g>
                <g>
                    <g>
                        <g>
                            <path d="M4.889 1C2.74 1 1 2.741 1 4.889v6.222C1 13.26 2.741 15 4.889 15h6.222C13.26 15 15 13.259 15 11.111V4.89C15 2.74 13.259 1 11.111 1H4.89zm7.778 1.556c.429 0 .777.348.777.777 0 .43-.348.778-.777.778-.43 0-.778-.348-.778-.778 0-.429.348-.777.778-.777zM8 4.11c2.147 0 3.889 1.742 3.889 3.889S10.147 11.889 8 11.889 4.111 10.147 4.111 8 5.853 4.111 8 4.111zm0 1.556C6.711 5.667 5.667 6.71 5.667 8c0 1.289 1.044 2.333 2.333 2.333 1.289 0 2.333-1.044 2.333-2.333 0-1.289-1.044-2.333-2.333-2.333z" transform="translate(-632 -3182) translate(0 2538) translate(560 632) translate(60) translate(12 12)"/>
                        </g>
                    </g>
                </g>
            </g>
        </g>
    </g>
</svg>
