<svg xmlns="http://www.w3.org/2000/svg" width="76" height="32" viewBox="0 0 76 32">
    <g fill="none" fill-rule="evenodd">
        <g fill="#FFF" fill-rule="nonzero">
            <g>
                <path d="M32.762 18.73c1.684 0 2.826.26 3.462.836.636.576.946 1.591.946 3.112l.028.778h-2.265l-.028-.81c0-1.166-.223-1.462-.326-1.555-.102-.093-.498-.315-1.868-.315-2.536 0-3.207.28-3.352.389-.146.109-.471.552-.471 2.368 0 4.356.243 5.5.392 5.791.098.195.51.638 2.607.638 2.096 0 2.7-.23 2.814-.315.114-.086.393-.389.393-1.556l-.043-1.162h2.28v.917c0 1.813-.36 2.96-1.028 3.446-.668.486-2.116.708-4.558.708-2.218 0-3.639-.451-4.263-1.26-.624-.809-.926-2.582-.926-5.394 0-2.159.063-3.489.204-4.072.19-.7.629-1.306 1.236-1.708.782-.567 2.34-.836 4.766-.836zm-30.493.113v5.3h.585l5.017-5.3h3.014l-6.017 6.281 6.736 6.74H8.455l-5.601-5.686h-.585v5.686H0V18.843h2.269zm12.012 0v13.02h-2.27v-13.02h2.27zm11.505 0v2.158h-3.949v10.863h-2.28V21h-3.993v-2.158h10.222zm15.416 0v5.348h6.277v-5.348h2.272v13.02H47.48v-5.627h-6.277v5.628h-2.27V18.843h2.27zm19.172 0v2.034H53.88v3.263h6.222v2.034H53.88v3.652h6.493v2.038h-8.762V18.843h8.762zm4.765 0l6.128 9.917v-9.917h2.273v13.02h-2.972l-6.112-9.866v9.867H62.18V18.843h2.96zM2.367.003v13.48H.047V.004h2.32zm29.366 0v13.48h-2.327V.004h2.327zm19.086 0v13.48h-2.328V.004h2.328zm-42.886 0l6.383 10.334V.004h2.32V13.48H13.59L7.207 3.2v10.28h-2.32V.004h3.046zm19.887 0v2.078h-6.371v3.523h6.194v2.081H21.45v5.795h-2.32V.004h8.69zm9.472 0l6.387 10.334V.004h2.327V13.48H42.95L36.574 3.2v10.28h-2.332V.004h3.05zM65.159 0l3.388 5.281c.058.075.11.154.153.238l.675-1.07L72.229 0H75l-5.197 7.91v5.57h-2.328V7.895l-4.71-7.39v1.696h-4.11V13.48h-2.32l.019-11.283h-4.15V0H65.16z" transform="translate(-64 -24) translate(64 24)"/>
            </g>
        </g>
    </g>
</svg>
