<svg xmlns="http://www.w3.org/2000/svg" width="24" height="24" viewBox="0 0 24 24">
    <g fill="none" fill-rule="evenodd">
        <g fill="#FFF" fill-rule="nonzero">
            <g>
                <path d="M20.088 17.357c.325-.005.626.198.79.531.163.334.163.747 0 1.08-.164.334-.465.537-.79.532H3.912c-.325.005-.626-.198-.79-.531-.163-.334-.163-.747 0-1.08.164-.334.465-.537.79-.532zm0-6.428c.325-.006.626.197.79.53.163.335.163.747 0 1.081-.164.334-.465.537-.79.531H3.912c-.325.006-.626-.197-.79-.53-.163-.335-.163-.747 0-1.081.164-.334.465-.537.79-.531zm0-6.429c.325-.005.626.198.79.531.163.334.163.747 0 1.08-.164.334-.465.537-.79.532H3.912c-.325.005-.626-.198-.79-.531-.163-.334-.163-.747 0-1.08.164-.334.465-.537.79-.532z" transform="translate(-335 -20) translate(335 20)"/>
            </g>
        </g>
    </g>
</svg>
