<svg xmlns="http://www.w3.org/2000/svg" width="16" height="16" viewBox="0 0 16 16">
    <g fill="none" fill-rule="evenodd">
        <g fill="#595351">
            <path d="M13.76 1c-.258-.005-.483.177-.535.432-.053.255.083.511.323.61.397.17.771.37 1.107.6.158.112.364.13.539.046.174-.084.29-.255.305-.45.014-.194-.077-.38-.238-.488-.404-.28-.841-.51-1.292-.703-.066-.03-.137-.046-.209-.047zM8.207 2.015c-2.543 0-4.995.47-6.343 1.686-.633.57-.932 1.42-.788 2.248l.005.027.11.394c.214.902 1.074 1.5 1.989 1.407h.008l.889-.115c.782-.08 1.437-.644 1.615-1.41l-.013.044.243-.75.006-.023c.005-.024.026-.048.045-.063.024-.005.12-.04.236-.062.163-.029.38-.055.614-.076.468-.04 1.008-.06 1.384-.06.377 0 .917.02 1.384.06.234.02.451.047.614.076.117.021.213.057.236.062.019.015.04.04.045.062l.006.024.242.75-.012-.044c.178.766.833 1.33 1.615 1.41l.89.114.007.001c.915.093 1.775-.505 1.988-1.407l.111-.394.005-.027c.143-.827-.156-1.678-.788-2.248-1.348-1.215-3.8-1.686-6.343-1.686zm0 1.082c2.393 0 4.698.573 5.627 1.411.362.327.52.794.445 1.246l-.099.355-.003.01c-.086.365-.446.621-.836.582l-.89-.116h-.007c-.338-.034-.605-.273-.676-.58l-.005-.022-.242-.75.011.045c-.073-.318-.268-.587-.544-.755h-.001c-.217-.131-.38-.152-.593-.19-.213-.038-.455-.066-.71-.088C9.175 4.2 8.62 4.18 8.207 4.18c-.411 0-.968.02-1.477.065-.255.022-.497.05-.71.088-.212.038-.376.058-.592.19-.277.166-.473.436-.547.754l.013-.044-.243.75-.006.023c-.07.306-.337.545-.675.579h-.008l-.89.116c-.39.04-.749-.218-.835-.581l-.003-.01-.099-.356c-.076-.452.082-.92.445-1.246.93-.838 3.234-1.41 5.627-1.41zm-.904 2.879c-.296.005-.533.25-.528.549v.747l-1.636.824c-1.85.93-3.02 2.838-3.02 4.92 0 1.09.888 1.984 1.97 1.984h8.237c1.081 0 1.97-.894 1.97-1.984 0-2.082-1.17-3.988-3.02-4.92L9.64 7.272v-.747c.002-.195-.1-.377-.267-.475-.167-.099-.374-.099-.541 0-.168.098-.27.28-.267.475v.54H7.85v-.54c.002-.147-.055-.288-.158-.39-.102-.104-.242-.161-.388-.16zM1.01 8.039c-.229.012-.425.168-.489.39-.063.221.02.459.206.592.43.317.926.545 1.457.66.19.05.393-.01.527-.154.134-.145.18-.352.117-.54-.063-.189-.222-.327-.416-.362-.382-.083-.74-.248-1.05-.477-.086-.066-.19-.104-.299-.109H1.01zm6.428.109h1.539l1.818.915c1.488.75 2.426 2.279 2.426 3.953 0 .505-.395.902-.895.902H4.089c-.501 0-.896-.397-.896-.902 0-1.674.938-3.204 2.426-3.953l1.819-.915zm-1.2 1.803c-.297 0-.538.242-.538.54 0 .3.24.542.537.542.297 0 .538-.242.538-.541 0-.299-.24-.541-.538-.541zm1.97 0c-.298 0-.538.242-.538.54 0 .3.24.542.537.542.297 0 .537-.242.537-.541 0-.299-.24-.541-.537-.541zm1.969 0c-.297 0-.537.242-.537.54 0 .3.24.542.537.542.297 0 .537-.242.537-.541 0-.299-.24-.541-.537-.541zm-3.94 1.803c-.296 0-.537.242-.537.541 0 .299.24.541.537.541.297 0 .538-.242.538-.54 0-.3-.24-.542-.538-.542zm1.97 0c-.297 0-.537.242-.537.541 0 .299.24.541.537.541.297 0 .537-.242.537-.54 0-.3-.24-.542-.537-.542zm1.97 0c-.297 0-.537.242-.537.541 0 .299.24.541.537.541.297 0 .537-.242.537-.54 0-.3-.24-.542-.537-.542z"/>
        </g>
    </g>
</svg>
