<svg xmlns="http://www.w3.org/2000/svg" width="96" height="96" viewBox="0 0 96 96">
    <g fill="none" fill-rule="evenodd">
        <g fill-rule="nonzero">
            <g>
                <path fill="#F4F4F4" d="M5.601 43.429l3.709 2.945c1.816 1.435 2.876 3.626 2.876 5.891v37.462c0 1.964 1.438 3.701 3.406 3.928 2.27.226 4.163-1.586 4.163-3.777V52.341c0-2.341 1.06-4.532 2.952-5.967l3.481-2.643c2.044-1.586 3.18-4.079 2.877-6.647l-.303-9.139H3.028l-.303 9.064c-.152 2.492.908 4.833 2.876 6.42zM53.74 89.878c0 2.115 1.664 3.777 3.784 3.777 2.119 0 3.784-1.662 3.784-3.777V7.326c0-2.417-1.968-4.305-4.314-4.305-1.892 0-3.633 1.284-4.163 3.097l-13.17 44.108c-.605 1.964.303 4.154 2.195 5.06l11.883 6.118v28.474z" transform="translate(16)"/>
                <path fill="#C3C3C3" d="M57.524 95.92c-3.33 0-6.055-2.718-6.055-6.042V72.81c0-1.284.984-2.266 2.27-2.266 1.287 0 2.27.982 2.27 2.266v17.07c0 .83.682 1.51 1.515 1.51.832 0 1.514-.68 1.514-1.51V7.325c0-1.133-.909-2.039-2.044-2.039-.908 0-1.741.604-1.968 1.435L41.78 50.83c-.302.982.152 1.964 1.06 2.417l11.959 6.194c1.135.604 1.514 1.963.984 3.02-.606 1.134-1.968 1.511-3.028.982L40.796 57.25c-2.8-1.435-4.238-4.683-3.33-7.78l13.17-44.032c.833-2.719 3.406-4.683 6.358-4.683 3.633 0 6.585 2.946 6.585 6.571v82.552c0 3.324-2.725 6.043-6.055 6.043zM15.895 95.92c-3.33 0-6.055-2.718-6.055-6.042v-32.93c0-1.284.984-2.266 2.27-2.266 1.287 0 2.27.982 2.27 2.266v32.93c0 .831.682 1.51 1.515 1.51.832 0 1.513-.679 1.513-1.51V52.341c0-3.021 1.439-5.967 3.86-7.78l3.482-2.643c1.438-1.133 2.271-2.946 2.044-4.834l-4.087-33.76c-.152-1.21.757-2.342 1.968-2.493 1.21-.151 2.346.755 2.497 1.964l4.012 33.76c.378 3.4-1.06 6.874-3.785 8.913l-3.481 2.643c-1.211.982-1.968 2.568-1.968 4.23v37.537c0 3.324-2.725 6.043-6.055 6.043zM9.385 48.716c-.53 0-.984-.152-1.438-.53l-3.784-3.02C1.438 43.05.076 39.728.53 36.329L4.54 2.719C4.693 1.511 5.828.604 7.115.755c1.21.151 2.12 1.284 1.968 2.568L5.07 36.933c-.227 1.813.53 3.626 1.968 4.758l3.785 3.022c.984.755 1.135 2.19.378 3.172-.454.528-1.135.83-1.817.83z" transform="translate(16)"/>
                <path fill="#FF800B" d="M15.895 34.743c-1.287 0-2.271-.982-2.271-2.266V3.021c0-1.284.984-2.266 2.27-2.266 1.287 0 2.271.982 2.271 2.266v29.456c0 1.284-.984 2.266-2.27 2.266z" transform="translate(16)"/>
            </g>
        </g>
    </g>
</svg>
