<svg xmlns="http://www.w3.org/2000/svg" width="96" height="96" viewBox="0 0 96 96">
    <g fill="none" fill-rule="evenodd">
        <g fill-rule="nonzero">
            <g>
                <path fill="#FFF" d="M86.492 56.124L67.754 62.64c.554-.945.923-1.984.83-3.211-.184-2.645-2.492-4.628-5.169-4.628H50.031c-5.17-7.65-19.293-7.65-19.293-7.65H19.477v23.044l26.585 8.5s8.03 2.362 13.753 0c4.893-1.983 24.554-12.56 30.739-15.96 1.2-.662 2.861-2.55 1.938-4.723-.83-1.7-2.215-2.928-6-1.89z" transform="translate(0 6)"/>
                <path fill="#C3C3C3" d="M51.323 52.157h12.092c3.958 0 7.39 2.96 7.905 6.87.082.273.126.567.126.875-.014.668-.107 1.316-.27 1.935l-.007.025c-.207.826-.554 1.629-1.015 2.384-.149.239-.326.453-.526.637-1.43 1.747-3.582 2.858-6.028 2.858H44.123c-1.57 0-2.77-1.228-2.77-2.834 0-1.605 1.2-2.833 2.77-2.833h19.57c.699 0 1.336-.32 1.745-.832.002-.007.005-.012.008-.018.185-.283.37-.756.37-1.417-.093-1.133-1.2-1.983-2.4-1.983H50.03c-.923 0-1.754-.472-2.308-1.228-3.6-5.289-13.477-6.422-16.985-6.422h-8.492v18.134l24.646 7.839S54 78.224 58.8 76.24c3.138-1.331 13.577-6.82 24.051-12.425l.924-.495.462-.247.922-.495.92-.494.916-.492 2.267-1.219c.092-.094.83-.661.646-1.039-.185-.472-.37-.944-2.585-.378l-10.708 3.59c-1.477.472-3.046-.284-3.507-1.795-.462-1.511.277-3.117 1.754-3.59l10.707-3.683h.093c6.092-1.7 8.4 1.512 9.23 3.59 1.477 3.494-.554 6.894-3.23 8.31-3.044 1.652-7.792 4.212-12.711 6.822l-1.02.541c-7.147 3.785-14.43 7.553-17.193 8.694-2.215.944-4.8 1.227-7.107 1.227-4.431 0-8.123-1.133-8.4-1.133l-26.585-8.5c-1.2-.378-1.938-1.511-1.938-2.74V47.34c0-1.605 1.2-2.833 2.769-2.833H30.85c1.46.015 14.322.355 20.472 7.65z" transform="translate(0 6)"/>
                <path fill="#FF800B" d="M59.166.216c.087.056.161.13.216.218l4.437 6.06c2.774 4.324 2.742 7.713.065 10.418-2.791 2.822-7.345 2.822-10.136 0-2.412-2.436-2.478-6.223-.143-10.084L58.233.429c.198-.316.616-.411.933-.213z" transform="translate(0 6)"/>
                <path fill="#F4F4F4" d="M16.708 74.069c1.569 0 2.769-1.228 2.769-2.834v-24.65c0-1.606-1.292-2.928-2.954-2.928h-13.2c-.37 0 0 30.412 0 30.412h13.385z" transform="translate(0 6)"/>
                <path fill="#C3C3C3" d="M16.708 76.902H3.323c-1.57 0-2.77-1.228-2.77-2.833 0-1.606 1.2-2.834 2.77-2.834h13.385v-24.65c0-.095-.093-.095-.185-.095h-13.2c-1.57 0-2.77-1.227-2.77-2.833s1.2-2.833 2.77-2.833h13.2c3.139 0 5.723 2.55 5.723 5.76v24.651c0 3.117-2.492 5.667-5.538 5.667z" transform="translate(0 6)"/>
                <path fill="#FF800B" d="M81.154 24.096l-2.356 3.793c-1.962 3.1-1.894 5.882-.188 7.619 1.981 2.018 5.223 2.018 7.205 0 1.794-1.828 1.938-3.997.16-7.048l-.184-.308-1.825-2.899-.719-1.157c-.364-.586-1.127-.762-1.705-.393-.157.1-.29.234-.388.393z" transform="translate(0 6)"/>
            </g>
        </g>
    </g>
</svg>
