<svg xmlns="http://www.w3.org/2000/svg" width="96" height="96" viewBox="0 0 96 96">
    <g fill="none" fill-rule="evenodd">
        <g>
            <path fill="#F4F4F4" fill-rule="nonzero" d="M8.62 54.62c0-21.748 17.633-39.326 39.38-39.326 21.747 0 39.38 17.578 39.38 39.327H8.62" transform="translate(0 19)"/>
            <path fill="#FF800B" d="M53.878 18.273c-1.666 0-2.94-1.29-2.94-2.98V9.435c0-1.588-1.37-2.88-2.938-2.88-1.665 0-2.939 1.292-2.939 2.88v5.86c0 1.688-1.273 2.98-2.939 2.98-1.665 0-2.938-1.292-2.938-2.98v-5.86c0-4.866 3.918-8.838 8.816-8.838 4.898 0 8.816 3.972 8.816 8.838v5.86c0 1.688-1.273 2.98-2.938 2.98z" transform="translate(0 19)"/>
            <path fill="#E9E7E7" fill-rule="nonzero" d="M48 15.294h-.049c-2.631.004 2.58.3.048.794 17.928 3.675 23.61 19.465 23.61 38.533h15.77c0-21.75-17.632-39.327-39.379-39.327" transform="translate(0 19)"/>
            <path fill="#C3C3C3" fill-rule="nonzero" d="M87.38 57.6c-1.666 0-2.94-1.291-2.94-2.98 0-20.06-16.358-36.347-36.44-36.347-20.082 0-36.44 16.287-36.44 36.348 0 1.688-1.274 2.979-2.94 2.979-1.665 0-2.938-1.291-2.938-2.98 0-23.337 19.004-42.306 42.318-42.306 23.314 0 42.318 18.969 42.318 42.307 0 1.688-1.371 2.979-2.938 2.979z" transform="translate(0 19)"/>
            <path fill="#FFF" fill-rule="nonzero" d="M19.396 48.86c-1.372-.397-2.155-1.886-1.763-3.177 2.645-8.839 9.306-16.188 14.106-18.571 1.273-.596 2.84-.1 3.428 1.191.588 1.291.098 2.781-1.175 3.476-3.82 1.887-9.404 8.342-11.56 15.493-.195 1.191-1.665 1.986-3.036 1.589z" transform="translate(0 19)"/>
            <path fill="#C3C3C3" fill-rule="nonzero" d="M92.865 57.6H3.135c-1.666 0-2.94-1.291-2.94-2.98 0-1.688 1.274-2.979 2.94-2.979h89.73c1.666 0 2.94 1.291 2.94 2.98 0 1.688-1.274 2.979-2.94 2.979z" transform="translate(0 19)"/>
        </g>
    </g>
</svg>
