<svg xmlns="http://www.w3.org/2000/svg" width="96" height="96" viewBox="0 0 96 96">
    <g fill="none" fill-rule="evenodd">
        <g transform="translate(4 9)">
            <path fill="#FFF" fill-rule="nonzero" d="M29.25 22.043L81.75 22.043 93 82.16 40.5 82.16z"/>
            <path fill="#F4F4F4" fill-rule="nonzero" d="M29.25 22.043L14.25 22.043 3 82.16 14.25 82.16 21.75 78.821 29.25 82.16 40.5 82.16z"/>
            <path fill="#C3C3C3" fill-rule="nonzero" d="M3 84.164h-.375c-1.2-.2-2.025-1.202-1.875-2.338L12 21.71c.225-1.069 1.35-1.803 2.625-1.67 1.2.2 2.025 1.202 1.875 2.338L5.25 82.494c-.225 1.002-1.2 1.67-2.25 1.67zM95.25 81.826L84 21.71c-.15-.935-1.125-1.67-2.25-1.67h-9v-4.676C72.75 6.88 65.025 0 55.5 0S38.25 6.88 38.25 15.363v4.676h-9c-.675 0-1.275.267-1.725.735-.45.467-.6 1.069-.525 1.603l10.875 57.78h-8.1L24 77.55V28.723c0-1.136-.975-2.004-2.25-2.004s-2.25.868-2.25 2.004V77.55l-6.225 2.806c-1.125.468-1.575 1.67-.975 2.672.375.735 1.2 1.135 2.025 1.135.375 0 .675-.066.975-.2l6.525-2.872 6.525 2.872c.3.134.675.2.975.2h63.75c.675 0 1.275-.267 1.725-.734.45-.468.525-1.002.45-1.604zm-52.5-66.463c0-6.279 5.7-11.355 12.75-11.355s12.75 5.076 12.75 11.355v4.676h-10.5v-4.676c0-2.07-.45-4.141-1.35-6.011-.45-1.002-1.8-1.47-2.925-1.07-1.125.402-1.65 1.604-1.2 2.606.675 1.403 1.05 2.872 1.05 4.475v4.676H42.75v-4.676zm-.375 64.794l-10.5-56.11H79.8l10.5 56.11H42.375zM25.5 17.367c-1.275 0-2.25-.868-2.25-2.004 0-6.813 5.1-12.892 12.45-14.762 1.2-.334 2.475.334 2.775 1.336.375 1.069-.375 2.204-1.5 2.472-5.475 1.47-9.225 5.945-9.225 10.954 0 1.136-.975 2.004-2.25 2.004z"/>
            <circle cx="72.329" cy="65.753" r="7.89" fill="#FF800B"/>
        </g>
    </g>
</svg>
