<svg xmlns="http://www.w3.org/2000/svg" width="112" height="25" viewBox="0 0 112 25">
    <g fill="none" fill-rule="evenodd">
        <g fill-rule="nonzero">
            <g>
                <g>
                    <g>
                        <g>
                            <g>
                                <path fill="#06C167" d="M63.818 8.517c0-1.7-1.36-3.036-3.076-3.036-1.692 0-3.076 1.336-3.076 3.036s1.384 3.036 3.076 3.036c1.716 0 3.076-1.336 3.076-3.036m2.51-4.971v9.95H63.77v-.9c-.89.738-2.016 1.15-3.239 1.15-3.027 0-5.391-2.323-5.391-5.23 0-2.898 2.372-5.23 5.391-5.23 1.223 0 2.348.414 3.239 1.15v-.89h2.558zm8.5 7.69h-1.926c-.583 0-.964-.25-.964-.784V5.797h2.882V3.546h-2.882V.712h-2.582v2.834h-1.943v2.259h1.943v5.286c0 1.336.963 2.396 2.696 2.396h2.768v-2.25h.008zm5.83 2.51c2.954 0 4.622-1.384 4.622-3.294 0-1.36-.988-2.373-3.052-2.81l-2.186-.437c-1.263-.227-1.668-.461-1.668-.923 0-.599.608-.963 1.733-.963 1.222 0 2.113.324 2.372 1.425h2.558c-.137-2.073-1.668-3.457-4.76-3.457-2.672 0-4.55 1.085-4.55 3.181 0 1.45 1.036 2.397 3.263 2.858l2.436.55c.964.187 1.223.438 1.223.827 0 .623-.729 1.011-1.903 1.011-1.473 0-2.323-.323-2.647-1.424h-2.582c.38 2.072 1.95 3.456 5.14 3.456M44.817.016h9.643v2.3h-7.035V5.61h6.849v2.235h-6.85v3.335h7.036v2.3h-9.642V.015z" transform="translate(-980 -527) translate(160 400) translate(796 108) translate(0 8) translate(24 12) translate(13 5)"/>
                                <path fill="#142328" d="M40.236 5.4V3.594h-.689c-1.092 0-1.902.502-2.388 1.288V3.667H35.2v9.804h1.975v-5.57c0-1.522.94-2.501 2.235-2.501h.826zM26.02 7.667c.356-1.498 1.586-2.502 3.052-2.502 1.465 0 2.704.996 3.036 2.502H26.02zm3.092-4.186c-2.914 0-5.133 2.324-5.133 5.092 0 2.923 2.308 5.117 5.311 5.117 1.822 0 3.311-.785 4.307-2.097l-1.433-1.036c-.745.98-1.724 1.44-2.882 1.44-1.684 0-3.036-1.19-3.311-2.784h8.128V8.58c.008-2.93-2.105-5.1-4.987-5.1m-11.301 8.517c-1.92 0-3.45-1.522-3.45-3.4 0-1.903 1.547-3.4 3.45-3.4 1.878 0 3.424 1.497 3.424 3.4.008 1.878-1.538 3.4-3.424 3.4m-5.384 1.481h1.959v-1.23c.899.906 2.178 1.457 3.562 1.457 2.939 0 5.246-2.291 5.246-5.116 0-2.842-2.307-5.133-5.246-5.133-1.392 0-2.647.558-3.546 1.457V.016h-1.975V13.48zm-6.954-1.578c1.902 0 3.367-1.441 3.367-3.579V.016h2.057v13.455h-2.04v-1.247c-.923.94-2.194 1.482-3.627 1.482-2.939 0-5.19-2.097-5.19-5.27V.016h2.065v8.306c0 2.178 1.449 3.579 3.368 3.579" transform="translate(-980 -527) translate(160 400) translate(796 108) translate(0 8) translate(24 12) translate(13 5)"/>
                            </g>
                        </g>
                    </g>
                </g>
            </g>
        </g>
    </g>
</svg>
